<svg id="Layer_1" data-name="Layer 1" xmlns="http://www.w3.org/2000/svg" viewBox="0 0 639.18 447.72"><defs><style>.cls-1{fill:#fff;}</style></defs><path class="cls-1" d="M336.86,289.31c-15.22,0-26.58-7.2-31.15-19.35s-1.16-26.1,8.34-34.22c11.49-9.81,31.76-10.48,43.84-1.44,9.2,6.88,13.16,20.24,9.78,33-3,11.31-13.16,19.9-25.6,21.55C340.09,289.13,338.09,289.21,336.86,289.31Zm14.89-27.66,1.09-.39c-1.88-5.75-3.31-11.71-5.78-17.2-2.22-4.92-6.81-7.18-12.32-6.82s-9.19,3.53-11.37,8.46c-3.41,7.72-2.91,15.58-.26,23.36,2.54,7.49,8.47,11.55,15.37,10.92,6.37-.58,11.54-5.92,12.83-13.37C351.59,265,351.61,263.3,351.75,261.65Z"/><path class="cls-1" d="M409,229.38h21.17c-3.38,8.4-3.4,50.7.18,58.74-5.51,0-10.76.23-16-.16-1.29-.1-2.43-2.23-3.15-2.94-4.51,1.39-9.09,3.68-13.82,4.06-10.21.82-17-5.32-17.46-15.54-.46-10.64-.06-21.32-.31-32-.09-4-.92-8-1.44-12.19H398c-.56,4.28-1.47,8.43-1.55,12.6-.2,9.5-.1,19,.1,28.5.12,5.46,2.82,8.4,7.15,8.47s7.1-2.63,7.25-8.32c.3-11.32.27-22.65.1-34C411,234.29,409.75,232,409,229.38Z"/><path class="cls-1" d="M441.48,229.64c10.74,0,21.51-.4,32.23.15,6.71.34,11.58,5.42,12.88,11.51,1.38,6.44-1,11.78-7.1,15.69-1.11.72-2.25,1.37-4.2,2.56l18.63,27.57a19,19,0,0,1-24.73-7.27c-3-5-5.52-10.2-8.26-15.31l-1.35.15c.46,7.59.92,15.18,1.39,23.07H441.71C444.93,278.57,444.77,236.77,441.48,229.64Zm18.93,9v19.1c7.06-2.15,10.33-6.81,9.22-12.57C468.71,240.31,465.5,238.05,460.41,238.6Z"/><path class="cls-1" d="M249.36,288.13c3.58-7.59,3.5-51.66.13-58.39,10.54,0,21.09-.48,31.56.19,5.81.38,10.08,4.32,11.37,10.4,1.35,6.39-1.26,11-7.3,13.82.47.55.69,1,1,1.18,8,3.94,11.07,9.33,9.9,17.5a17,17,0,0,1-15.25,14.86c-5.76.62-11.62.36-17.44.43C258.78,288.17,254.2,288.13,249.36,288.13ZM268,260.22c0,4.71-.22,9,.1,13.26.16,2,1.56,5.62,2.09,5.56,2.71-.28,6.17-.77,7.79-2.59,3-3.41,3.09-8.1,1-12.17S273,259.52,268,260.22ZM268,245a12.72,12.72,0,0,0,0,2.47c.31,1.51.79,3,1.2,4.47,1.8-.59,4.29-.64,5.24-1.88a11,11,0,0,0,2.21-6.69,5.42,5.42,0,0,0-5.9-5.45c-4.19.08-2.37,3.46-2.77,5.59A7.42,7.42,0,0,0,268,245Z"/><path class="cls-1" d="M555.58,289.78a32.37,32.37,0,0,1-21-12.48c-5.73-7.36-11.25-14.87-16.88-22.3-.65-.85-1.43-1.62-2.32-2.63-1.94,10.45-.77,28.58,2.31,35.39H503.6c2.19-19.45,3.72-38.64-1.24-58.5,4.39,0,9.91-.24,15.39.17,1.37.11,2.76,2.19,3.84,3.6,7.85,10.3,15.62,20.66,24.13,30.86-.58-11.49,2.81-23.09-2.29-34.51h13.82c-.57,5.49-1.5,10.8-1.59,16.12-.23,13-.08,26-.08,39Z"/><path class="cls-1" d="M153.74,229.45a4.58,4.58,0,0,1,.82-.22c6,0,13.34-2,17.55.75s5.17,10.22,7.27,15.74c3.38,8.86,6.38,17.87,9.8,26.71,2,5.18,4.54,10.16,6.89,15.36H173.5c1.91-4.63.93-16.29-2-16.75a45.5,45.5,0,0,0-17.06.24c-3.23.74-4.11,12-1.87,16.41H136.51C147.22,267.5,156.78,235.64,153.74,229.45Zm9.6,16.78-1.23.16c-1.62,4.91-3.24,9.82-5,15h11.52C166.77,256,165.05,251.1,163.34,246.23Z"/><path class="cls-1" d="M86.18,274.79c-1.59,4.26-2.64,7.39-4,10.41a4.12,4.12,0,0,1-2.36,2.28c-12.6,2.52-25.21,3.93-36.57-4-10.52-7.36-15-17.69-12.73-30.37,2.24-12.49,9.71-20.91,22.22-23.42,6.88-1.39,14.17-.84,21.27-1.06,2.53-.08,4,1.07,4,3.91,0,2.64.27,5.29.47,8.76-2.25-1-3.95-1.73-5.67-2.43-12.64-5.12-22.49.57-24.15,14a38.81,38.81,0,0,0-.18,6.47c.77,16.24,12.25,24.24,27.82,19.34C79.27,277.73,82.11,276.4,86.18,274.79Z"/><path class="cls-1" d="M602.56,239.65l-14.64-2.14c0,4.83-.19,8.62.13,12.37.08.92,1.75,2.29,2.81,2.42a72.13,72.13,0,0,0,8.77.12v10.07L588,260.75c0,5.73-.2,10.66.17,15.56.07,1,2.19,2.34,3.51,2.55,6.33,1,12.59.94,18.82-4.08-1.08,4.41-1.73,7.78-2.79,11A3.79,3.79,0,0,1,605,288c-11.93.15-23.87.1-34.65.1a352.81,352.81,0,0,0,0-58.69h32.24Z"/><path class="cls-1" d="M241.69,229.38c-4.4,8.88-8.17,17-12.4,24.92-5.89,11-4.11,22-1.13,33.47H207.43c2.34-12.08,4.4-23.92-3-35.4-4.65-7.24-8.38-15.07-12.81-23.17,5.85,0,11.88-.18,17.88.16,1.13.06,2.44,2,3.15,3.38,2.85,5.43,5.49,11,8.89,17.84,2.39-7.77,9.3-12.74,5.36-21.2Z"/><path class="cls-1" d="M131.55,277.73a55,55,0,0,1-2.12,7.62c-.49,1.18-2.19,2.63-3.37,2.65-11.3.19-22.6.11-32.82.11a336.43,336.43,0,0,0,.1-58.61H112c-.38,7.05-.91,14.19-1.09,21.34-.19,7.82.06,15.65-.1,23.47-.06,2.95,1.12,4.63,3.91,4.54C120.18,278.67,125.68,278.14,131.55,277.73Z"/><path class="cls-1" d="M358.71,78.21c2.9,6.83,5.25,12.39,7.88,18.6,2-11.62,3.54-22.52,5.72-33.3s5.57-21.19,13-31.35c2.68,11.35,5.12,21.64,7.55,31.93,4.7-14.54,7.18-29.7,18.39-41.61V61.65l1.49.51c8.2-16.91,18.92-31.93,33.1-44.62-1.7,8.77-3.62,17.51-5.07,26.32-7.4,44.87-14.43,89.8-22.15,134.62-2.45,14.23-6.6,28.16-10,42.22-1,4-3.4,4.88-6.38,3.72,3.95-15.73,7.83-31.22,11.72-46.71l-1.63-.49c-2.22,4.74-4.18,9.64-6.71,14.21-5.48,9.9-11.33,19.6-16.87,29.47-1.82,3.22-4.17,4.6-8.17,3.49-6.27-34.7-16-69.21-14.11-105.23.54-10.34-5.23-18.14-8.18-27.08l-2-.14c-1.59,8-3.78,16-4.67,24.08-3.17,28.74,1.31,56.82,8.32,84.6,1.95,7.73,4.15,15.4,6.29,23.3-3.73,1.7-5.87.87-6.79-3.25-3.93-17.54-7.72-35.12-12.1-52.55-1.58-6.29-4.68-12.19-7.72-18.07-.52,25.37,5.39,49.73,10.36,74.57-3.86.51-6-.35-6.77-4.48-1.76-10-3.17-20.16-6.12-29.83-1.71-5.6-6.12-10.38-9.31-15.52l-1.27.45a19.45,19.45,0,0,0-.25,3c1,13.79,1.86,27.59,3.09,41.35.35,4-.73,5.62-5.72,5.07,1.69-12.68-5.14-21.77-13.64-30.85a92.75,92.75,0,0,0,1.92,32.1c1.18,5,1.15,5-3.79,8.74-1.13-5.14-2.55-9.84-3.15-14.65-.82-6.6-1.77-13.32-1.34-19.9,1.26-19.37-3.76-37.29-11.33-54.74-5.3-12.25-10.79-24.41-20.08-34.34-1-1.07-1.7-2.42-3.57-3.11,16.76,39.17,27.46,79.19,23.81,122l-1.41.8-5-7.68,1-1.31c-23.7-2-47-8.84-72-4.28l9.88,6.35c-8.47,2.87-13.22.5-24.76-12.5h19.17l.31-1.41c-11.17-4.36-22.26-8.83-32.08-17.55l18.68-3.13-30.5-18.41.5-1.84,15.24-3.14c-11.2-6.7-23.3-10.82-30.51-22.84l19.37-2.06c-17.35-8-34-14.77-45.19-31.21L157,108.1c-13.69-7.62-27.74-13.34-32-30.68L153.15,79,122.53,41.84l1.11-1.2c20.55,2,38.49,11.72,58.48,20.44-12-15.45-22.09-30.41-26.65-49.74,4.05,2.33,7.42,3.9,10.39,6,37.75,26.9,74.68,54.85,108,87.18,15.44,15,22.73,34.65,29.63,54.34,2.35,6.71,3.42,13.87,5.1,20.83a8,8,0,0,0,.88,2.81c3.55,5,7.21,9.86,11.78,16.06v-38.2l1.16-.34,12.34,15.22c-.84-15.76-3.52-30.55,2-46.14l7.5,16.17C345.15,122.43,343.92,99.28,358.71,78.21ZM137.21,48.27l-1,1.45c8.92,11.09,17.21,22.62,30.46,29.54,33.06,17.26,65.92,34.92,98.88,52.41,1.81,1,3.71,1.76,6.75,3.18-1.55-4-2.84-6.69-3.62-9.5-2.35-8.52-7.58-14.38-15.35-18.52C225.57,92,198.07,76.75,170.17,62.25,159.61,56.76,148.22,52.88,137.21,48.27ZM385.28,215.84c3.08-5.1,6-9.18,8.05-13.62a14.13,14.13,0,0,0,1.29-8.32c-7.2-34.52-10.42-69.22-4.79-104.26,2.31-14.32-4.53-26.77-6.86-40.19C365.08,104.79,371.56,159.77,385.28,215.84ZM134.53,83.67l-1,1.72c4,3.31,7.66,7.33,12.15,9.75,8.33,4.48,17.19,7.94,25.77,12q51.39,23.94,102.73,48l5.81,2.71c-1.4-4.45-2.09-7.89-3.58-10.95a13,13,0,0,0-4.93-5.64Q220.36,114,169,87.08a11.18,11.18,0,0,0-4.11-1.65C154.78,84.74,144.65,84.24,134.53,83.67ZM283.71,174.3c-1.26-4.52-.41-8.48-4.92-10.61-33.14-15.62-66.34-31.11-99.23-47.26-10.71-5.26-21-1.93-31.76-1.39a17.35,17.35,0,0,0,5.1,4.67c9,4.92,17.89,10.41,27.36,14.33C199.5,142,219.12,149,238.54,156.49,253.27,162.19,267.93,168.07,283.71,174.3ZM406.49,45.24l-1.5-.13c-13.36,32-16.24,122.77-4.23,143.93,3.32-8.95,8.49-16.49,8.08-26.59-1.26-30.29-1.68-60.61-2.32-90.91C406.34,62.77,406.49,54,406.49,45.24Zm-232.68,103c34.42,21.5,73.68,29.53,111.61,42,1-6.45-.78-9.61-6.45-11.75-24.93-9.42-49.88-18.84-74.35-29.36C194.11,144.66,184.26,146.83,173.81,148.26ZM167,24.89l-.91.68A47.12,47.12,0,0,0,169.4,32c7.82,11,15.66,21.9,23.79,32.61,1.82,2.41,4.65,4.23,7.34,5.76C217,79.7,233.65,88.86,250.2,98.16c3.37,1.89,6.58,4.07,9.86,6.12l1.14-1.17c-2.58-3.3-4.65-7.23-7.83-9.81C227.78,72.54,202,52,176.22,31.48,173.28,29.13,170.1,27.08,167,24.89ZM414.08,151.94l2.25.41L436.07,36.93c-13.25,17.16-24.85,34.67-23.51,57.76C413.68,113.73,413.62,132.85,414.08,151.94ZM286.86,204.49c1.19-6.21-1.11-8.43-6.47-10-25.15-7.59-50-16-75.23-23.53-4.54-1.35-9.95.23-15,.45l0,1.82C220,190.88,251.9,202.08,286.86,204.49Zm-84.17-8.42c27.28,14.15,55.9,16.26,84.32,19.82.44-5.45.44-5.43-4.09-5.87-19.79-1.93-39.23-5.75-57.57-13.5C218,193.42,211.38,193.77,202.69,196.07Z"/><path class="cls-1" d="M262.1,357c1.18,1.6,3.44,3.24,3.37,4.77-.83,17.45-2,34.87-3.17,53.17l-22.87-4.72c-.81,2.92-1.5,5.43-2.38,8.59-4.64-1.15-9.13-2.1-13.51-3.41-3-.88-5-1.08-6,2.7-.29,1.15-2.18,2.49-3.5,2.69-7.41,1.15-14.85,2.11-22.32,2.77a5.25,5.25,0,0,1-4.11-2.3A116.81,116.81,0,0,1,179.85,405c-.73-2,.89-4.95,1.62-8.29l-17.37-10.6,12.18-12.75-16.49-14.86c7.62-5.92,14.91-11.63,22.25-17.28C201.69,326.08,221.45,311,241,295.7c3.81-3,7.57-3.66,13.22-2.81l-85.48,66,10.72,9.45,27.78-25.12,3.34,2.87L173.31,384.9c3.9,2.38,7.4,4.85,11.23,6.61,1,.43,3.46-1.08,4.45-2.33q23.12-29.19,46-58.56c1-1.27,2.07-2.49,3.55-4.25,1.48,6.91,3.23,12.65,1,19.42-6.41,19.45-11.95,39.19-17.82,58.81-.33,1.1-.58,2.22-1,3.94l12.17,3.34c3.69-15,7.27-29.67,11-44.75l5.48,1.14c-2.87,12.07-5.67,23.81-8.62,36.18L257,408c1.09-17.13,2.14-33.63,3.18-50.13ZM234.43,342.3l-.85-.51q-23.51,30-46.93,60c-.68.87-.61,2.81-.16,4,4.78,12.24,4.78,11.72,17.77,10.69,6.64-.52,9.19-3.13,10.91-9.28C221.25,385.46,228,363.91,234.43,342.3Z"/><path class="cls-1" d="M337.91,294.45c19.09.38,31.41,12.7,31,31.05s-14.35,30.85-33.78,30.34c-18.76-.5-31.52-13.22-31.25-31.17S318.39,294.07,337.91,294.45Zm14.86,32.2c-1.76-5.21-3.13-10.86-5.55-16-2.28-4.83-6.73-7.24-12.3-6.88s-9.32,3.45-11.4,8.39a30,30,0,0,0,1.64,27.36c5.48,9.69,18.68,9.5,23.94-.32C351,335.67,351.44,331.38,352.77,326.65Z"/><path class="cls-1" d="M284.9,391.68l-3.48-4.46L299.72,374l-2.94-4.44-13.56,9.55-3.41-4.39,13.24-9.8-3.06-5,.56-1.42a57.24,57.24,0,0,0,6.6,1.73c1.41.21,2.92-.27,5.12-.53L305,363,302,366.22c.12.42.11.83.3,1,8.78,9.31,11.65,20.53,11.48,33.05-.11,8.79,2,10.78,11.56,12.66-2.66-5.81-3.64-11.78,1.32-16.08,3.46-3,8-5.78,12.44-6.42,11.27-1.64,18.95,7.4,19.39,21.56,5.15-3,6.3-10.16,2.49-15.77a18.32,18.32,0,0,0-13.21-8.2,139.06,139.06,0,0,0-18.38-.59c-4.38.08-4.37.38-4.53-5.1l9.11-1.43-4.65-20.48c3.85-1,6.08-.34,6.76,3.69s2,8.09,2.72,12.18c.59,3.39,2.18,4.57,5.68,5.46,6,1.53,12.2,3.59,17.25,7,6.9,4.67,8.68,13,6.11,20.54-2.39,7-7.52,10.83-15,11a29.6,29.6,0,0,1-9-.85c.89-.57,1.74-1.19,2.67-1.69,5.87-3.14,7-5.38,5.83-12-.81-4.7-5.15-8.83-10.23-9.72-4.59-.81-10.37,1.72-12.23,6a8.77,8.77,0,0,0,0,6.06c1.47,3.84,3.59,7.44,6,12.17-9.2-.58-17.62-1-24-7.39-2-2-3-5.51-3.47-8.49-.78-5.08-.51-10.32-1.2-15.42-.46-3.35-1.84-6.58-3.1-10.88Z"/><path class="cls-1" d="M299.46,341.39c-1.48,4.14-2.52,7.41-3.86,10.57a4.06,4.06,0,0,1-2.47,2.09C280,356.62,266.88,358,255.36,349c-9.85-7.66-13.57-17.94-11.16-30.11s10-20.34,22.26-22.82c6.42-1.3,13.19-.83,19.81-1.12,3.7-.17,5.52,1.43,5.24,5.36a56.42,56.42,0,0,0,.32,6.87c-4.48-1.2-8.52-2.85-12.69-3.28-8.74-.89-14.25,3.32-16.38,11.89a35.58,35.58,0,0,0-1,7.41c-.53,18.38,12.4,27.71,29.7,21.46C293.91,343.78,296.26,342.71,299.46,341.39Z"/><path class="cls-1" d="M366.9,296.72c-.33,2.88-.46,4-.62,5.44-6.47-5.44-6.47-5.44-6.24-12.17l14.79,4.26c-2.35-4.29-3.85-7.6-5.87-10.56-2.36-3.47-2.16-6.34,1.23-9.37.73,1.11,1.5,2.1,2.09,3.19,10.06,18.4,20.15,36.77,30.11,55.23,4.7,8.7,8.73,17.56,6.48,28-.46,2.14,1.26,4.72,1.91,7.12,4.7,17.46-5.31,29.28-24.23,27.59,4.34-5.79,8.41-11.89,3.86-18.64-1.74-2.59-5.78-3.63-9.72-5.93-.57,5.08-1,8.6-1.4,12.43-4.84-4.7-9.19-9.19-13.82-13.38s-9.36-7.89-14.21-11.94c2.79-2.9,5.83-3.11,9.15-.15,4.44,4,8.94,7.87,12.29,10.81,3-1,5.19-2.22,7.38-2.3,2.42-.09,4.9.78,7.32,1.37,8.58,2.1,16.43-3.24,16.1-12a41.33,41.33,0,0,0-4.2-16.17,366.34,366.34,0,0,0-19.47-35.41C377.65,300.7,372,299.49,366.9,296.72Zm31.43,91.18c8.06-2,10.11-11.93,6.29-18.78l-8.25,4.22C397,378.27,397.66,382.94,398.33,387.9Z"/><path class="cls-1" d="M392.94,347.27a8.56,8.56,0,1,1-8.52-8.57A8.65,8.65,0,0,1,392.94,347.27Z"/><path class="cls-1" d="M336.29,237.2c9,0,15.46,15.52,15.46,24.45s10,1.8,10,1.8l-5.91-18.87-7.7-7.38-8-3.88Z"/><path class="cls-1" d="M453.71,37.91h-2.46V37h6v.88h-2.47v7.2h-1.05Z"/><path class="cls-1" d="M465,41.56c-.06-1.13-.13-2.48-.12-3.49h0c-.27,1-.61,2-1,3.07l-1.42,3.92h-.79l-1.31-3.85c-.39-1.14-.71-2.18-.94-3.14h0c0,1-.09,2.36-.16,3.57l-.21,3.47h-1l.56-8.08h1.34l1.37,3.91c.34,1,.62,1.88.82,2.72h0c.2-.82.49-1.7.85-2.72L464.34,37h1.33l.5,8.08h-1Z"/></svg>