<?xml version="1.0" encoding="utf-8"?>
<!-- Generator: Adobe Illustrator 26.0.2, SVG Export Plug-In . SVG Version: 6.00 Build 0)  -->
<svg version="1.1" id="Layer_1" xmlns="http://www.w3.org/2000/svg" xmlns:xlink="http://www.w3.org/1999/xlink" x="0px" y="0px"
	 viewBox="0 0 243 243" style="enable-background:new 0 0 243 243;" xml:space="preserve">
<style type="text/css">
	.st0{fill:#FFFFFF;}
	.st1{fill:#208679;}
</style>
<circle class="st0" cx="122" cy="121.7" r="120.6"/>
<path class="st1" d="M122,15.3C63.2,15.3,15.6,63,15.6,121.7c0,58.8,47.6,106.4,106.4,106.4c58.8,0,106.4-47.6,106.4-106.4
	c0,0,0,0,0,0C228.3,63,180.7,15.4,122,15.3z M122,219.6c-54.1,0-97.9-43.8-97.9-97.9S67.9,23.8,122,23.8s97.9,43.8,97.9,97.9l0,0
	C219.9,175.8,176.1,219.6,122,219.6L122,219.6z"/>
<path class="st1" d="M170.4,101.4c-7-9.8-16.8-17.3-28.1-21.5c-2.4-0.9-5-1.6-7.5-2.2V70h4.9c2.1,0,3.7-1.7,3.8-3.8V52.6
	c0-2.1-1.7-3.7-3.8-3.8H105c-2.1,0-3.7,1.7-3.8,3.8v13.6c0,2.1,1.7,3.8,3.8,3.8h4.9v7.6c-1.3,0.3-2.7,0.6-4,1
	c-11.5,3.2-21.7,9.9-29.4,19c-7.8,9.5-12.6,21.2-13.5,33.5c-1.9,24.7,11.8,47.9,34.3,58.1c11.5,5.2,24.3,6.7,36.7,4.2
	c24-5,42.5-24.2,46.4-48.4c0.5-3.1,0.7-6.3,0.8-9.5C181.2,123.3,177.4,111.4,170.4,101.4z M127.2,70v6.1h-9.9V70H127.2z M108.7,62.5
	v-6.1h27.1v6.1C135.9,62.5,108.7,62.5,108.7,62.5z M173.5,139.7c-0.1,0.7-0.1,1.4-0.2,2.1c0,0.1,0,0.5-0.1,0.6
	c-0.1,0.4-0.1,0.7-0.2,1.1c-0.5,2.8-1.1,5.5-2,8.2c-0.4,1.3-0.9,2.5-1.4,3.8l-0.1,0.2l-0.1,0.2l-0.4,0.9c-0.3,0.7-0.7,1.4-1,2.1
	c-1.3,2.4-2.7,4.8-4.3,7l-0.6,0.8L163,167c-0.4,0.5-0.7,0.9-1.1,1.4c-0.8,1-1.7,2-2.6,2.9s-1.9,1.9-2.8,2.7c-0.5,0.4-1,0.9-1.5,1.3
	l-0.8,0.6l-0.7,0.6c-2.1,1.6-4.4,3.1-6.7,4.4c-1.2,0.6-2.3,1.2-3.6,1.8l-0.9,0.4l-0.2,0.1l-0.2,0.1c-0.7,0.3-1.4,0.6-2.2,0.8
	c-2.6,1-5.4,1.7-8.1,2.2c-0.6,0.1-1.1,0.2-1.7,0.3l-1,0.2h-0.2h-0.2c-1.5,0.2-3,0.3-4.5,0.4c-2.9,0.1-5.8,0-8.7-0.4h-0.2h-0.2
	l-1-0.2c-0.7-0.1-1.3-0.2-2-0.4c-1.4-0.3-2.9-0.6-4.3-1s-2.6-0.8-3.8-1.2c-0.6-0.2-1.2-0.5-1.9-0.7l-0.2-0.1l-0.2-0.1l-1.2-0.6
	c-2.4-1.1-4.7-2.4-6.9-3.9c-1-0.7-2.1-1.4-3-2.1l-0.4-0.4l-0.8-0.6c-0.6-0.5-1.2-1-1.7-1.5c-2-1.8-3.9-3.8-5.7-5.9l-0.6-0.8
	c0,0-0.2-0.3-0.3-0.4l-1-1.4c-0.8-1.2-1.6-2.4-2.3-3.6s-1.3-2.3-1.9-3.5c-0.3-0.6-0.6-1.2-0.9-1.8l-0.4-0.9l-0.1-0.2l-0.2-0.4
	c-1-2.5-1.8-5-2.4-7.7c-0.3-1.3-0.6-2.7-0.8-4l-0.2-1c0-0.1,0-0.1,0-0.2c0-0.1,0-0.1,0-0.2c-0.1-0.8-0.2-1.6-0.2-2.4
	c-0.2-2.9-0.2-5.8,0-8.7c0.1-0.7,0.1-1.4,0.2-2.1c0-0.1,0-0.1,0-0.2s0-0.1,0-0.2l0.2-1c0.2-1.5,0.5-2.9,0.9-4.3
	c1.2-5.1,3.2-10,6-14.4c0.7-1.1,1.4-2.2,2.2-3.3c0.3-0.5,0.7-1,1-1.4l0.3-0.4c0.3-0.3,0.6-0.7,0.8-1c1.8-2.1,3.7-4.1,5.7-5.9
	l1.5-1.3l0.8-0.6l0.4-0.3c1.1-0.8,2.2-1.6,3.3-2.3c2.2-1.4,4.5-2.7,6.9-3.8l0.9-0.4l0.2-0.1l0.2-0.1c0.6-0.2,1.2-0.5,1.9-0.7
	c1.4-0.5,2.8-0.9,4.2-1.3s2.6-0.7,3.9-1c0.7-0.1,1.3-0.3,2-0.4l1-0.2l0,0l0.7-0.1c2.9-0.3,5.8-0.4,8.7-0.3c1.4,0.1,2.8,0.2,4.1,0.3
	h0.2h0.2l1,0.2c0.7,0.1,1.3,0.2,2,0.4c2.7,0.6,5.4,1.3,8,2.3c0.6,0.2,1.2,0.5,1.9,0.7l0.2,0.1l0.2,0.1l0.9,0.4
	c1.3,0.6,2.6,1.3,3.8,2c1.1,0.6,2.3,1.3,3.4,2c0.6,0.4,1.1,0.7,1.6,1.1l0.8,0.6l0.7,0.5c2.1,1.6,4.1,3.4,5.9,5.3
	c0.8,0.9,1.6,1.8,2.4,2.7c0.4,0.4,0.8,0.9,1.1,1.4l0.3,0.4c0.3,0.3,0.5,0.7,0.8,1.1c1.6,2.2,3,4.6,4.2,7c0.3,0.6,0.6,1.2,0.9,1.8
	c0.1,0.3,0.3,0.6,0.4,0.9l0.1,0.2l0.1,0.2c0.5,1.3,1,2.7,1.5,4.1c0.9,2.7,1.5,5.4,1.9,8.2c0,0.2,0.1,0.5,0.1,0.7s0.1,0.6,0.1,0.6
	c0.1,0.7,0.1,1.4,0.2,2.1c0.1,1.4,0.1,2.8,0.1,4.2S173.6,138.2,173.5,139.7L173.5,139.7z"/>
<path class="st1" d="M136.8,93.6c-22.8-8.3-47.9,3.5-56.2,26.3c-7.8,21.5,2.2,45.4,23,54.9c8.5,3.9,18.1,5,27.2,3.1
	c17.4-3.5,31.7-18.2,34.4-35.8c0.4-2.4,0.6-4.8,0.6-7.2c0-9-2.8-17.8-7.9-25.2C152.7,102.3,145.3,96.7,136.8,93.6z M85.9,139.8
	C86,140.4,85.9,140,85.9,139.8z M158.1,129.8c0,0.2,0.1,0.6,0.1,0.6c0.1,0.5,0.1,0.9,0.1,1.4c0.1,1,0.1,2.1,0.1,3.1s0,2.1-0.1,3.1
	c0,0.5-0.1,0.9-0.1,1.4c0,0.1,0,0.3,0,0.4s-0.1,0.6-0.1,0.6c-0.3,2-0.8,4-1.4,5.9c-0.3,0.9-0.6,1.8-1,2.6l0,0l-0.3,0.7
	c-0.2,0.5-0.5,1-0.7,1.5c-0.9,1.7-1.9,3.3-3,4.9c-0.2,0.3-0.5,0.7-0.8,1l-0.6,0.7c-0.7,0.8-1.4,1.6-2.1,2.3c-0.6,0.7-1.3,1.3-2,1.9
	l-1,0.9l-0.6,0.5l-0.2,0.2c-1.5,1.2-3.2,2.2-4.9,3.2c-0.9,0.5-1.8,0.9-2.6,1.3c-0.1,0.1-0.7,0.3-0.8,0.4l-1.4,0.5
	c-1.9,0.7-3.8,1.2-5.8,1.6c-0.4,0.1-0.9,0.2-1.3,0.2l-0.4,0.1l-0.5,0.1c-1.1,0.1-2.2,0.2-3.3,0.2c-2,0.1-4.1,0-6.1-0.2l-0.5-0.1
	l-0.4-0.1c-0.4-0.1-0.9-0.1-1.3-0.2c-1-0.2-2.1-0.5-3.1-0.8s-1.8-0.6-2.7-0.9c-0.4-0.1-0.8-0.3-1.2-0.5h-0.1h-0.1l-0.8-0.3
	c-1.8-0.8-3.5-1.8-5.2-2.9c-0.8-0.5-1.5-1-2.3-1.6l-0.7-0.5c-0.4-0.4-0.8-0.7-1.2-1.1c-1.5-1.3-2.8-2.7-4.1-4.2l-0.6-0.7
	c-0.3-0.3-0.5-0.7-0.8-1c-0.6-0.9-1.2-1.7-1.7-2.6s-0.9-1.5-1.3-2.3c-0.2-0.4-0.4-0.9-0.7-1.3c-0.1-0.2-0.2-0.5-0.3-0.8v-0.1
	c0,0,0-0.1,0-0.1c-0.7-1.9-1.4-3.8-1.8-5.7c-0.2-0.9-0.4-1.9-0.6-2.8c0-0.2-0.1-0.4-0.1-0.6l0,0c-0.1-0.6-0.1-1.1-0.2-1.7
	c-0.2-2.1-0.2-4.2,0-6.3c0-0.5,0.1-1,0.2-1.6c0-0.1,0-0.2,0-0.4s0.1-0.5,0.1-0.5c0.2-1,0.4-2,0.6-3c0.5-1.9,1.1-3.7,1.8-5.5l0.4-0.8
	c0.2-0.4,0.4-0.9,0.6-1.3c0.5-0.9,1-1.8,1.5-2.7s0.9-1.5,1.4-2.2c0.3-0.4,0.6-0.8,0.9-1.2l0,0l0.1-0.1l0.5-0.6
	c1.3-1.5,2.6-2.9,4.1-4.2c0.4-0.3,0.7-0.7,1.1-1l0.7-0.5c0.7-0.6,1.5-1.1,2.3-1.6c1.6-1.1,3.4-2,5.2-2.9l0.6-0.3h0.1h0.1
	c0.5-0.2,0.9-0.4,1.4-0.5c0.9-0.3,1.9-0.7,2.9-0.9s1.8-0.5,2.8-0.7l1.5-0.3l0.7-0.1c-0.8,0.1,0.3,0,0.4,0c2.1-0.2,4.2-0.3,6.3-0.2
	c0.9,0,1.8,0.1,2.8,0.2l0.6,0.1h0.2c0.6,0.1,1.1,0.2,1.7,0.3c2,0.4,3.9,0.9,5.8,1.7c0.4,0.1,0.8,0.3,1.2,0.4l0.8,0.4
	c0.9,0.4,1.8,0.9,2.6,1.3c1.7,0.9,3.3,2,4.8,3.1l0.8,0.6c0.4,0.3,0.7,0.6,1.1,1c0.7,0.7,1.4,1.3,2.1,2s1.3,1.3,1.9,2.1
	c0.1,0.1,0.6,0.7,0.7,0.8c0.3,0.4,0.6,0.8,0.8,1.2c1.1,1.6,2.1,3.3,3,5.1l0.6,1.2l0.4,0.8c0.4,0.9,0.7,1.8,1,2.8
	c0.6,1.9,1.1,3.9,1.4,5.9L158.1,129.8z"/>
<path class="st1" d="M137.5,116.1l-11.2,11.5c-0.3-0.2-0.6-0.3-1-0.4c-2.4-0.8-5-0.7-7.4,0.2l-4.8-4.6l-0.8-0.8
	c-1.5-1.5-3.8-1.5-5.3,0c0,0,0,0,0,0c-0.7,0.7-1.1,1.7-1.1,2.7c0,1,0.4,1.9,1.1,2.7l5.6,5.4c-0.5,1.1-0.8,2.4-0.9,3.6
	c-0.3,4.1,2,8,5.7,9.9c2.1,1,4.5,1.3,6.7,0.9c4.7-0.9,8.1-5.4,8.2-10.1c0-1.3-0.3-2.7-0.8-3.9l9.7-9.9l1.6-1.7
	c1.4-1.5,1.3-3.9-0.2-5.3C141.2,114.8,139,114.8,137.5,116.1L137.5,116.1z M124.7,137.9c0,0,0,0.1,0,0.1c-0.1,0.2-0.3,0.4-0.4,0.7
	l-0.2,0.2l-0.2,0.2c-0.2,0.1-0.4,0.3-0.7,0.4l0,0H123c-0.2,0.1-0.4,0.1-0.6,0.1h-0.7c-0.2,0-0.4-0.1-0.6-0.1l-0.1-0.1l-0.7-0.4
	l-0.2-0.2l-0.2-0.2c-0.1-0.2-0.3-0.4-0.4-0.7l0,0c0,0,0-0.1,0-0.1c-0.1-0.2-0.1-0.4-0.1-0.6c0-0.2,0-0.5,0-0.7
	c0-0.2,0.1-0.4,0.1-0.6c0,0,0-0.1,0-0.1l0.4-0.7c0.1-0.2,0.3-0.3,0.4-0.4l0.7-0.4l0,0h0.1c0.2-0.1,0.4-0.1,0.6-0.1h0.7
	c0.2,0,0.4,0.1,0.6,0.1l0.1,0.1l0.7,0.4l0.2,0.2l0.1,0.1v0.1l0,0l0,0c0.1,0.2,0.3,0.4,0.4,0.7l0,0c0,0,0,0.1,0,0.1
	c0.1,0.2,0.1,0.4,0.1,0.6c0,0.1,0,0.2,0,0.3s0,0.2,0,0.3S124.7,137.7,124.7,137.9z"/>
</svg>
