<svg id="Layer_1" data-name="Layer 1" xmlns="http://www.w3.org/2000/svg" xmlns:xlink="http://www.w3.org/1999/xlink" viewBox="0 0 243 243"><defs><style>.cls-1{fill:url(#linear-gradient);}.cls-2{fill:#fff;}</style><linearGradient id="linear-gradient" x1="16.5" y1="121.55" x2="226.5" y2="121.55" gradientUnits="userSpaceOnUse"><stop offset="0" stop-color="#18c5ba"/><stop offset="1" stop-color="#1f8679"/></linearGradient></defs><rect class="cls-1" x="16.5" y="16.55" width="210" height="210" rx="36.4"/><path class="cls-2" d="M126.39,103.31l-10.3,10.3-3.6-3.6-.9-.9a3.68,3.68,0,0,0-5.2-.09l-.1.09a3.9,3.9,0,0,0-1.1,2.7,4,4,0,0,0,1.1,2.7l6.2,6.2.4.4a2.66,2.66,0,0,0,.5.6,3.87,3.87,0,0,0,5.3,0l11.3-11.3,1.7-1.8a3.75,3.75,0,1,0-5.11-5.48Z"/><path class="cls-2" d="M183.09,161.31a3.75,3.75,0,0,0-1-2.2l-18.2-18.2,3-1.7a4.18,4.18,0,0,0,1.9-3.2v-13.3l6.6-11.5a.42.42,0,0,1,.1-.2v-.1a1.38,1.38,0,0,0,.2-.6v-.1c0-.2.1-.3.1-.5v-.6a3,3,0,0,0-.5-1.6L168.69,96V82.61a4.43,4.43,0,0,0-2.6-3.7l-6.3-3.6-4.5-2.6-5.9-10.3c-.2-.4-.5-.9-.7-1.3a4.63,4.63,0,0,0-4.1-1.9h-12.4l-11.5-6.6a3.7,3.7,0,0,0-3.8,0l-11.5,6.8H92.19a4.41,4.41,0,0,0-3.7,2.6l-3.6,6.3-2.6,4.5L72,78.71c-.4.2-.8.5-1.3.7-1.5,1-1.8,2.5-1.8,4.1v12.4l-6.6,11.5a3.7,3.7,0,0,0,0,3.8l6.6,11.5V136c.1,2.2,1.6,3.1,3.2,4l1.3.8-15.7,15.6-2.7,2.7a3.75,3.75,0,0,0,2.6,6.4l19.6,2.1c.6,5.5,1.2,11.1,1.8,16.7.1,1,.2,2,.3,2.9a3.75,3.75,0,0,0,6.4,2.6l25.1-25.1,1.6-1.6,2.5,1.4,2.1,1.2c1.9,1,3.4.2,5-.7l3.1-1.8,22.9,22.9,3.5,3.5a3.75,3.75,0,0,0,6.4-2.6c.7-6.5,1.3-13.1,2-19.6l16.7-1.8,2.9-.3h.3a3.32,3.32,0,0,0,2.4-1.1,2,2,0,0,0,.4-.5,2.89,2.89,0,0,0,.7-2.2C183.09,161.61,183.09,161.51,183.09,161.31ZM86,179c-.4-4-.8-7.9-1.2-11.9-.1-1-.2-1.9-.3-2.9a4,4,0,0,0-3.8-3.8l-14.8-1.5,13.6-13.6.7-.7,2.2,1.2,6.6,11.5a3.41,3.41,0,0,0,3.1,1.9h13.3l.2.1Zm41.8-25.7-4,2.3-.6.3-4.3,2.5-5.6-3.3-3-1.7c-.7-.4-1.3-.8-2-1.2a4.77,4.77,0,0,0-2.6-.5H94.29l-4.8-8.4c-.2-.4-.4-.7-.6-1.1a10.18,10.18,0,0,0-.6-1,5.31,5.31,0,0,0-1.7-1.6h-.1l-.1-.1-1.1-.6-4.6-2.6-4.3-2.5v-12.1a5.58,5.58,0,0,0-1-2.8l-3.6-6.3-1.9-3.3,5.2-9.1a9.21,9.21,0,0,0,.8-1.4,5.65,5.65,0,0,0,.5-2.9V84.81l9.1-5.3c.5-.3,1-.5,1.4-.8a5.43,5.43,0,0,0,1.8-2.2l3.6-6.3c.7-1.1,1.3-2.2,1.9-3.3h12.1a5.88,5.88,0,0,0,2.8-1l6.3-3.6,3.3-1.9,9.1,5.2a8.86,8.86,0,0,0,1.4.8,5.69,5.69,0,0,0,2.9.5h11.1l5.3,9.1c.3.5.5.9.8,1.4a6.69,6.69,0,0,0,2.2,1.9l6.3,3.6,3.4,1.9v12.1a5.61,5.61,0,0,0,1,2.8l3.6,6.3,1.9,3.3-5.2,9.1a11.47,11.47,0,0,0-.8,1.4,5.8,5.8,0,0,0-.5,2.9v11.1l-5.3,3.1c-1.1.7-2.3,1.3-3.4,2a16.1,16.1,0,0,0-1.7,1,4.36,4.36,0,0,0-1.6,1.7,14.44,14.44,0,0,0-1.1,2c-.3.4-.5.9-.8,1.4l-3.9,6.8h-12.1a7.41,7.41,0,0,0-3.5,1.5Zm31.5,6.8-2.9.3a4,4,0,0,0-3.8,3.8l-1.5,14.8-19.4-19.5.5-.3h13.3a3.55,3.55,0,0,0,3.2-1.9l6.6-11.5,1.8-1,14.1,14.1Z"/><path class="cls-2" d="M152.59,116.91a48,48,0,0,0,.5-5.5,33.7,33.7,0,1,0-33.8,33.7,32,32,0,0,0,6.9-.7A33.9,33.9,0,0,0,152.59,116.91Zm-9.3,5.1c-.2.3-.3.7-.5,1a21,21,0,0,1-2.2,3.6c-.2.3-.4.5-.6.8l-.3.4c-.5.6-1,1.1-1.5,1.7a16.81,16.81,0,0,1-1.4,1.4c-.3.3-.6.5-.9.8l-.5.4a32.29,32.29,0,0,1-3.3,2.4,15,15,0,0,1-1.9,1l-.6.3-.3.1-.6.2a30.5,30.5,0,0,1-4.2,1.2c-.3.1-.7.1-1,.2H123c-.7.1-1.5.1-2.2.2-1.8-.1-3.3-.1-4.9-.3h-.4l-1-.2a16.87,16.87,0,0,1-2.3-.5,12,12,0,0,1-2.1-.7l-.9-.4-.4-.2a36.61,36.61,0,0,1-3.9-2.1c-.5-.4-1.1-.7-1.6-1.1l-.4-.3a6.14,6.14,0,0,1-.9-.8,31.23,31.23,0,0,1-3.1-3.2c-.1-.1-.3-.4-.4-.4l-.4-.6a21.75,21.75,0,0,1-1.2-1.9c-.3-.6-.7-1.1-1-1.7-.2-.3-.3-.7-.5-1-.1-.1-.2-.5-.3-.6a34,34,0,0,1-1.3-4.2,14.75,14.75,0,0,1-.4-2,.89.89,0,0,0-.1-.5c0-.4-.1-.8-.1-1.2a33.79,33.79,0,0,1,0-4.5c0-.4.1-.8.1-1.2v-.4a16.87,16.87,0,0,1,.5-2.3,27.06,27.06,0,0,1,1.3-4l.2-.5c.2-.3.3-.7.5-1,.3-.6.7-1.3,1-1.9s.77-1.22,1.2-1.8l.5-.7.5-.6a21.81,21.81,0,0,1,3-3l.7-.6.6-.4a9.27,9.27,0,0,1,1.6-1.1,24.81,24.81,0,0,1,3.9-2.1l.5-.2c.2-.1.5-.2.7-.3a20.84,20.84,0,0,1,2.2-.7,16.87,16.87,0,0,1,2.1-.5c.3-.1.7-.1,1-.2l.5-.1a38.81,38.81,0,0,1,4.7-.2,16.23,16.23,0,0,1,2.1.2h.5l1.2.2a33.59,33.59,0,0,1,4.2,1.2l.9.3.5.2c.7.3,1.4.7,2.1,1a40.28,40.28,0,0,1,3.4,2.2c.1.1.3.2.4.3a6.27,6.27,0,0,1,.9.8l1.5,1.5a11.15,11.15,0,0,1,1.4,1.6l.4.4.1.1a4.25,4.25,0,0,1,.5.7,27.74,27.74,0,0,1,2.2,3.7c.1.3.3.6.4.9a4.76,4.76,0,0,1,.3.7c.2.6.5,1.2.7,1.8a31.81,31.81,0,0,1,1.1,4.4v.4c0,.3.1.7.1,1a19.27,19.27,0,0,1,.1,2.4,17.63,17.63,0,0,1-.1,2.3c0,.3-.1.7-.1,1v.5a31.11,31.11,0,0,1-1.1,4.4,13.92,13.92,0,0,1-.7,1.9C143.39,121.81,143.39,121.91,143.29,122Z"/></svg>