<svg id="Layer_1" data-name="Layer 1" xmlns="http://www.w3.org/2000/svg" xmlns:xlink="http://www.w3.org/1999/xlink" viewBox="0 0 243 243"><defs><style>.cls-1{fill:#fff;}.cls-2{fill:url(#linear-gradient);}.cls-3{fill:url(#linear-gradient-2);}.cls-4{fill:url(#linear-gradient-3);}</style><linearGradient id="linear-gradient" x1="62.31" y1="121.5" x2="180.69" y2="121.5" gradientUnits="userSpaceOnUse"><stop offset="0" stop-color="#18c5ba"/><stop offset="1" stop-color="#1f8679"/></linearGradient><linearGradient id="linear-gradient-2" x1="77.45" y1="134.69" x2="165.29" y2="134.69" xlink:href="#linear-gradient"/><linearGradient id="linear-gradient-3" x1="105.39" y1="131.07" x2="143.28" y2="131.07" xlink:href="#linear-gradient"/></defs><rect class="cls-1" x="16.5" y="16.55" width="210" height="210" rx="36.4"/><path class="cls-2" d="M169.89,101.21a60.43,60.43,0,0,0-28.1-21.5,64.5,64.5,0,0,0-7.5-2.2v-7.7h4.9A3.86,3.86,0,0,0,143,66V52.41a3.86,3.86,0,0,0-3.8-3.8h-34.7a3.86,3.86,0,0,0-3.8,3.8V66a3.8,3.8,0,0,0,3.8,3.8h4.9v7.6c-1.3.3-2.7.6-4,1a58.84,58.84,0,0,0-42.9,52.5A58.78,58.78,0,0,0,96.79,189a60.12,60.12,0,0,0,36.7,4.2,59.12,59.12,0,0,0,46.4-48.4,74.52,74.52,0,0,0,.8-9.5A59.5,59.5,0,0,0,169.89,101.21Zm-43.2-31.4v6.1h-9.9v-6.1Zm-18.5-7.5v-6.1h27.1v6.1Zm64.8,77.2c-.1.7-.1,1.4-.2,2.1,0,.1,0,.5-.1.6-.1.4-.1.7-.2,1.1a57.67,57.67,0,0,1-2,8.2c-.4,1.3-.9,2.5-1.4,3.8l-.1.2-.1.2-.4.9c-.3.7-.7,1.4-1,2.1a62.51,62.51,0,0,1-4.3,7l-.6.8-.1.3-1.1,1.4a35.84,35.84,0,0,1-2.6,2.9c-.9.9-1.9,1.9-2.8,2.7-.5.4-1,.9-1.5,1.3l-.8.6-.7.6a59.47,59.47,0,0,1-6.7,4.4c-1.2.6-2.3,1.2-3.6,1.8l-.9.4-.2.1-.2.1a14.27,14.27,0,0,1-2.2.8,46.26,46.26,0,0,1-8.1,2.2l-1.7.3-1,.2H128c-1.5.2-3,.3-4.5.4a50.71,50.71,0,0,1-8.7-.4h-.4l-1-.2a14.16,14.16,0,0,1-2-.4c-1.4-.3-2.9-.6-4.3-1s-2.6-.8-3.8-1.2c-.6-.2-1.2-.5-1.9-.7l-.2-.1-.2-.1-1.2-.6a47,47,0,0,1-6.9-3.9c-1-.7-2.1-1.4-3-2.1l-.4-.4-.8-.6c-.6-.5-1.2-1-1.7-1.5a63.74,63.74,0,0,1-5.7-5.9l-.6-.8a4,4,0,0,0-.3-.4l-1-1.4c-.8-1.2-1.6-2.4-2.3-3.6s-1.3-2.3-1.9-3.5l-.9-1.8-.4-.9-.1-.2-.2-.4a49.21,49.21,0,0,1-2.4-7.7c-.3-1.3-.6-2.7-.8-4l-.2-1v-.4a19.42,19.42,0,0,1-.2-2.4,63.15,63.15,0,0,1,0-8.7c.1-.7.1-1.4.2-2.1v-.4l.2-1a29.79,29.79,0,0,1,.9-4.3,46.78,46.78,0,0,1,6-14.4c.7-1.1,1.4-2.2,2.2-3.3a17,17,0,0,1,1-1.4l.3-.4a7,7,0,0,0,.8-1,63.74,63.74,0,0,1,5.7-5.9l1.5-1.3.8-.6.4-.3c1.1-.8,2.2-1.6,3.3-2.3a57.64,57.64,0,0,1,6.9-3.8l.9-.4.2-.1.2-.1c.6-.2,1.2-.5,1.9-.7,1.4-.5,2.8-.9,4.2-1.3s2.6-.7,3.9-1c.7-.1,1.3-.3,2-.4l1-.2h0l.7-.1a63.26,63.26,0,0,1,8.7-.3l4.1.3h.4l1,.2a14.16,14.16,0,0,1,2,.4,56.13,56.13,0,0,1,8,2.3c.6.2,1.2.5,1.9.7l.2.1.2.1.9.4c1.3.6,2.6,1.3,3.8,2s2.3,1.3,3.4,2c.6.4,1.1.7,1.6,1.1l.8.6.7.5a49.57,49.57,0,0,1,5.9,5.3l2.4,2.7a7.55,7.55,0,0,1,1.1,1.4l.3.4a10.47,10.47,0,0,1,.8,1.1,49.9,49.9,0,0,1,4.2,7l.9,1.8c.1.3.3.6.4.9l.1.2.1.2c.5,1.3,1,2.7,1.5,4.1a46.43,46.43,0,0,1,1.9,8.2c0,.2.1.5.1.7a3.54,3.54,0,0,0,.1.6c.1.7.1,1.4.2,2.1.1,1.4.1,2.8.1,4.2s.1,2.8,0,4.3Z"/><path class="cls-3" d="M136.29,93.41a43.9,43.9,0,1,0-6,84.3c17.4-3.5,31.7-18.2,34.4-35.8a43.73,43.73,0,0,0,.6-7.2,43.72,43.72,0,0,0-29-41.3Zm-50.9,46.2C85.49,140.21,85.39,139.81,85.39,139.61Zm72.2-10a3.54,3.54,0,0,0,.1.6,6.6,6.6,0,0,1,.1,1.4c.1,1,.1,2.1.1,3.1s0,2.1-.1,3.1c0,.5-.1.9-.1,1.4v.4c0,.1-.1.6-.1.6a39,39,0,0,1-1.4,5.9,20,20,0,0,1-1,2.6h0l-.3.7c-.2.5-.5,1-.7,1.5a49.43,49.43,0,0,1-3,4.9,7,7,0,0,1-.8,1l-.6.7c-.7.8-1.4,1.6-2.1,2.3a18,18,0,0,1-2,1.9l-1,.9-.6.5-.2.2a41.29,41.29,0,0,1-4.9,3.2c-.9.5-1.8.9-2.6,1.3-.1.1-.7.3-.8.4l-1.4.5a38.27,38.27,0,0,1-5.8,1.6,5.85,5.85,0,0,1-1.3.2l-.4.1-.5.1c-1.1.1-2.2.2-3.3.2a41.47,41.47,0,0,1-6.1-.2l-.5-.1-.4-.1c-.4-.1-.9-.1-1.3-.2-1-.2-2.1-.5-3.1-.8s-1.8-.6-2.7-.9a6.12,6.12,0,0,1-1.2-.5h-.2l-.8-.3a38.09,38.09,0,0,1-5.2-2.9c-.8-.5-1.5-1-2.3-1.6l-.7-.5c-.4-.4-.8-.7-1.2-1.1a40.66,40.66,0,0,1-4.1-4.2l-.6-.7c-.3-.3-.5-.7-.8-1-.6-.9-1.2-1.7-1.7-2.6s-.9-1.5-1.3-2.3a8.26,8.26,0,0,0-.7-1.3,6.89,6.89,0,0,1-.3-.8v-.2a41.68,41.68,0,0,1-1.8-5.7c-.2-.9-.4-1.9-.6-2.8,0-.2-.1-.4-.1-.6h0c-.1-.6-.1-1.1-.2-1.7a33.15,33.15,0,0,1,0-6.3,10,10,0,0,1,.2-1.6v-.4a2,2,0,0,1,.1-.5l.6-3a50.51,50.51,0,0,1,1.8-5.5l.4-.8c.2-.4.4-.9.6-1.3l1.5-2.7a21.08,21.08,0,0,1,1.4-2.2l.9-1.2h0l.1-.1.5-.6a40.66,40.66,0,0,1,4.1-4.2c.4-.3.7-.7,1.1-1l.7-.5a18.82,18.82,0,0,1,2.3-1.6,43.48,43.48,0,0,1,5.2-2.9l.6-.3h.2a7.84,7.84,0,0,1,1.4-.5,24.57,24.57,0,0,1,2.9-.9c1-.2,1.8-.5,2.8-.7l1.5-.3.7-.1c-.8.1.3,0,.4,0a44.22,44.22,0,0,1,6.3-.2c.9,0,1.8.1,2.8.2l.6.1h.2l1.7.3a29.63,29.63,0,0,1,5.8,1.7c.4.1.8.3,1.2.4l.8.4c.9.4,1.8.9,2.6,1.3a39.41,39.41,0,0,1,4.8,3.1l.8.6a10,10,0,0,1,1.1,1c.7.7,1.4,1.3,2.1,2a19,19,0,0,1,1.9,2.1c.1.1.6.7.7.8a8.34,8.34,0,0,1,.8,1.2,42.67,42.67,0,0,1,3,5.1l.6,1.2.4.8a23.07,23.07,0,0,1,1,2.8,39,39,0,0,1,1.4,5.9Z"/><path class="cls-4" d="M137,115.91l-11.2,11.5a3,3,0,0,0-1-.4,11.07,11.07,0,0,0-7.4.2l-4.8-4.6-.8-.8a3.68,3.68,0,0,0-5.3,0h0a3.86,3.86,0,0,0-1.1,2.7,4,4,0,0,0,1.1,2.7l5.6,5.4a11.21,11.21,0,0,0-.9,3.6,10.39,10.39,0,0,0,5.7,9.9,11.14,11.14,0,0,0,6.7.9,10.57,10.57,0,0,0,8.2-10.1,10.46,10.46,0,0,0-.8-3.9l9.7-9.9,1.6-1.7a3.78,3.78,0,0,0-.2-5.3,3.62,3.62,0,0,0-5.1-.2Zm-12.8,21.8v.1a4.35,4.35,0,0,0-.4.7l-.2.2-.2.2a4.35,4.35,0,0,1-.7.4h-.2a1.27,1.27,0,0,1-.6.1h-.7c-.2,0-.4-.1-.6-.1l-.1-.1-.7-.4-.2-.2-.2-.2a4.35,4.35,0,0,1-.4-.7h0v-.1a1.27,1.27,0,0,1-.1-.6v-.7c0-.2.1-.4.1-.6v-.1l.4-.7c.1-.2.3-.3.4-.4l.7-.4h.1a1.27,1.27,0,0,1,.6-.1h.7c.2,0,.4.1.6.1l.1.1.7.4.2.2.1.1v.1h0a4.35,4.35,0,0,1,.4.7h0v.1a1.27,1.27,0,0,1,.1.6v.6C124.09,137.11,124.19,137.51,124.19,137.71Z"/><path class="cls-2" d="M169.89,101.21a60.43,60.43,0,0,0-28.1-21.5,64.5,64.5,0,0,0-7.5-2.2v-7.7h4.9A3.86,3.86,0,0,0,143,66V52.41a3.86,3.86,0,0,0-3.8-3.8h-34.7a3.86,3.86,0,0,0-3.8,3.8V66a3.8,3.8,0,0,0,3.8,3.8h4.9v7.6c-1.3.3-2.7.6-4,1a58.84,58.84,0,0,0-42.9,52.5A58.78,58.78,0,0,0,96.79,189a60.12,60.12,0,0,0,36.7,4.2,59.12,59.12,0,0,0,46.4-48.4,74.52,74.52,0,0,0,.8-9.5A59.5,59.5,0,0,0,169.89,101.21Zm-43.2-31.4v6.1h-9.9v-6.1Zm-18.5-7.5v-6.1h27.1v6.1Zm64.8,77.2c-.1.7-.1,1.4-.2,2.1,0,.1,0,.5-.1.6-.1.4-.1.7-.2,1.1a57.67,57.67,0,0,1-2,8.2c-.4,1.3-.9,2.5-1.4,3.8l-.1.2-.1.2-.4.9c-.3.7-.7,1.4-1,2.1a62.51,62.51,0,0,1-4.3,7l-.6.8-.1.3-1.1,1.4a35.84,35.84,0,0,1-2.6,2.9c-.9.9-1.9,1.9-2.8,2.7-.5.4-1,.9-1.5,1.3l-.8.6-.7.6a59.47,59.47,0,0,1-6.7,4.4c-1.2.6-2.3,1.2-3.6,1.8l-.9.4-.2.1-.2.1a14.27,14.27,0,0,1-2.2.8,46.26,46.26,0,0,1-8.1,2.2l-1.7.3-1,.2H128c-1.5.2-3,.3-4.5.4a50.71,50.71,0,0,1-8.7-.4h-.4l-1-.2a14.16,14.16,0,0,1-2-.4c-1.4-.3-2.9-.6-4.3-1s-2.6-.8-3.8-1.2c-.6-.2-1.2-.5-1.9-.7l-.2-.1-.2-.1-1.2-.6a47,47,0,0,1-6.9-3.9c-1-.7-2.1-1.4-3-2.1l-.4-.4-.8-.6c-.6-.5-1.2-1-1.7-1.5a63.74,63.74,0,0,1-5.7-5.9l-.6-.8a4,4,0,0,0-.3-.4l-1-1.4c-.8-1.2-1.6-2.4-2.3-3.6s-1.3-2.3-1.9-3.5l-.9-1.8-.4-.9-.1-.2-.2-.4a49.21,49.21,0,0,1-2.4-7.7c-.3-1.3-.6-2.7-.8-4l-.2-1v-.4a19.42,19.42,0,0,1-.2-2.4,63.15,63.15,0,0,1,0-8.7c.1-.7.1-1.4.2-2.1v-.4l.2-1a29.79,29.79,0,0,1,.9-4.3,46.78,46.78,0,0,1,6-14.4c.7-1.1,1.4-2.2,2.2-3.3a17,17,0,0,1,1-1.4l.3-.4a7,7,0,0,0,.8-1,63.74,63.74,0,0,1,5.7-5.9l1.5-1.3.8-.6.4-.3c1.1-.8,2.2-1.6,3.3-2.3a57.64,57.64,0,0,1,6.9-3.8l.9-.4.2-.1.2-.1c.6-.2,1.2-.5,1.9-.7,1.4-.5,2.8-.9,4.2-1.3s2.6-.7,3.9-1c.7-.1,1.3-.3,2-.4l1-.2h0l.7-.1a63.26,63.26,0,0,1,8.7-.3l4.1.3h.4l1,.2a14.16,14.16,0,0,1,2,.4,56.13,56.13,0,0,1,8,2.3c.6.2,1.2.5,1.9.7l.2.1.2.1.9.4c1.3.6,2.6,1.3,3.8,2s2.3,1.3,3.4,2c.6.4,1.1.7,1.6,1.1l.8.6.7.5a49.57,49.57,0,0,1,5.9,5.3l2.4,2.7a7.55,7.55,0,0,1,1.1,1.4l.3.4a10.47,10.47,0,0,1,.8,1.1,49.9,49.9,0,0,1,4.2,7l.9,1.8c.1.3.3.6.4.9l.1.2.1.2c.5,1.3,1,2.7,1.5,4.1a46.43,46.43,0,0,1,1.9,8.2c0,.2.1.5.1.7a3.54,3.54,0,0,0,.1.6c.1.7.1,1.4.2,2.1.1,1.4.1,2.8.1,4.2s.1,2.8,0,4.3Z"/><path class="cls-2" d="M136.29,93.41a43.9,43.9,0,1,0-6,84.3c17.4-3.5,31.7-18.2,34.4-35.8a43.73,43.73,0,0,0,.6-7.2,43.72,43.72,0,0,0-29-41.3Zm-50.9,46.2C85.49,140.21,85.39,139.81,85.39,139.61Zm72.2-10a3.54,3.54,0,0,0,.1.6,6.6,6.6,0,0,1,.1,1.4c.1,1,.1,2.1.1,3.1s0,2.1-.1,3.1c0,.5-.1.9-.1,1.4v.4c0,.1-.1.6-.1.6a39,39,0,0,1-1.4,5.9,20,20,0,0,1-1,2.6h0l-.3.7c-.2.5-.5,1-.7,1.5a49.43,49.43,0,0,1-3,4.9,7,7,0,0,1-.8,1l-.6.7c-.7.8-1.4,1.6-2.1,2.3a18,18,0,0,1-2,1.9l-1,.9-.6.5-.2.2a41.29,41.29,0,0,1-4.9,3.2c-.9.5-1.8.9-2.6,1.3-.1.1-.7.3-.8.4l-1.4.5a38.27,38.27,0,0,1-5.8,1.6,5.85,5.85,0,0,1-1.3.2l-.4.1-.5.1c-1.1.1-2.2.2-3.3.2a41.47,41.47,0,0,1-6.1-.2l-.5-.1-.4-.1c-.4-.1-.9-.1-1.3-.2-1-.2-2.1-.5-3.1-.8s-1.8-.6-2.7-.9a6.12,6.12,0,0,1-1.2-.5h-.2l-.8-.3a38.09,38.09,0,0,1-5.2-2.9c-.8-.5-1.5-1-2.3-1.6l-.7-.5c-.4-.4-.8-.7-1.2-1.1a40.66,40.66,0,0,1-4.1-4.2l-.6-.7c-.3-.3-.5-.7-.8-1-.6-.9-1.2-1.7-1.7-2.6s-.9-1.5-1.3-2.3a8.26,8.26,0,0,0-.7-1.3,6.89,6.89,0,0,1-.3-.8v-.2a41.68,41.68,0,0,1-1.8-5.7c-.2-.9-.4-1.9-.6-2.8,0-.2-.1-.4-.1-.6h0c-.1-.6-.1-1.1-.2-1.7a33.15,33.15,0,0,1,0-6.3,10,10,0,0,1,.2-1.6v-.4a2,2,0,0,1,.1-.5l.6-3a50.51,50.51,0,0,1,1.8-5.5l.4-.8c.2-.4.4-.9.6-1.3l1.5-2.7a21.08,21.08,0,0,1,1.4-2.2l.9-1.2h0l.1-.1.5-.6a40.66,40.66,0,0,1,4.1-4.2c.4-.3.7-.7,1.1-1l.7-.5a18.82,18.82,0,0,1,2.3-1.6,43.48,43.48,0,0,1,5.2-2.9l.6-.3h.2a7.84,7.84,0,0,1,1.4-.5,24.57,24.57,0,0,1,2.9-.9c1-.2,1.8-.5,2.8-.7l1.5-.3.7-.1c-.8.1.3,0,.4,0a44.22,44.22,0,0,1,6.3-.2c.9,0,1.8.1,2.8.2l.6.1h.2l1.7.3a29.63,29.63,0,0,1,5.8,1.7c.4.1.8.3,1.2.4l.8.4c.9.4,1.8.9,2.6,1.3a39.41,39.41,0,0,1,4.8,3.1l.8.6a10,10,0,0,1,1.1,1c.7.7,1.4,1.3,2.1,2a19,19,0,0,1,1.9,2.1c.1.1.6.7.7.8a8.34,8.34,0,0,1,.8,1.2,42.67,42.67,0,0,1,3,5.1l.6,1.2.4.8a23.07,23.07,0,0,1,1,2.8,39,39,0,0,1,1.4,5.9Z"/><path class="cls-2" d="M137,115.91l-11.2,11.5a3,3,0,0,0-1-.4,11.07,11.07,0,0,0-7.4.2l-4.8-4.6-.8-.8a3.68,3.68,0,0,0-5.3,0h0a3.86,3.86,0,0,0-1.1,2.7,4,4,0,0,0,1.1,2.7l5.6,5.4a11.21,11.21,0,0,0-.9,3.6,10.39,10.39,0,0,0,5.7,9.9,11.14,11.14,0,0,0,6.7.9,10.57,10.57,0,0,0,8.2-10.1,10.46,10.46,0,0,0-.8-3.9l9.7-9.9,1.6-1.7a3.78,3.78,0,0,0-.2-5.3,3.62,3.62,0,0,0-5.1-.2Zm-12.8,21.8v.1a4.35,4.35,0,0,0-.4.7l-.2.2-.2.2a4.35,4.35,0,0,1-.7.4h-.2a1.27,1.27,0,0,1-.6.1h-.7c-.2,0-.4-.1-.6-.1l-.1-.1-.7-.4-.2-.2-.2-.2a4.35,4.35,0,0,1-.4-.7h0v-.1a1.27,1.27,0,0,1-.1-.6v-.7c0-.2.1-.4.1-.6v-.1l.4-.7c.1-.2.3-.3.4-.4l.7-.4h.1a1.27,1.27,0,0,1,.6-.1h.7c.2,0,.4.1.6.1l.1.1.7.4.2.2.1.1v.1h0a4.35,4.35,0,0,1,.4.7h0v.1a1.27,1.27,0,0,1,.1.6v.6C124.09,137.11,124.19,137.51,124.19,137.71Z"/></svg>