<svg id="Layer_1" data-name="Layer 1" xmlns="http://www.w3.org/2000/svg" xmlns:xlink="http://www.w3.org/1999/xlink" viewBox="0 0 243 243"><defs><style>.cls-1{fill:#fff;}.cls-2{fill:url(#linear-gradient);}.cls-3{fill:url(#linear-gradient-2);}.cls-4{fill:url(#linear-gradient-3);}.cls-5{fill:url(#linear-gradient-4);}.cls-6{fill:url(#linear-gradient-5);}.cls-7{fill:url(#linear-gradient-6);}.cls-8{fill:url(#linear-gradient-7);}.cls-9{fill:url(#linear-gradient-8);}.cls-10{fill:url(#linear-gradient-9);}.cls-11{fill:url(#linear-gradient-10);}</style><linearGradient id="linear-gradient" x1="51.04" y1="85.91" x2="140.28" y2="85.91" gradientUnits="userSpaceOnUse"><stop offset="0" stop-color="#18c5ba"/><stop offset="1" stop-color="#1f8679"/></linearGradient><linearGradient id="linear-gradient-2" x1="102.79" y1="157.05" x2="191.94" y2="157.05" xlink:href="#linear-gradient"/><linearGradient id="linear-gradient-3" x1="147.66" y1="97.53" x2="172.21" y2="97.53" xlink:href="#linear-gradient"/><linearGradient id="linear-gradient-4" x1="71.17" y1="145.38" x2="95.72" y2="145.38" xlink:href="#linear-gradient"/><linearGradient id="linear-gradient-5" x1="76.21" y1="85.92" x2="91.65" y2="85.92" xlink:href="#linear-gradient"/><linearGradient id="linear-gradient-6" x1="94.21" y1="85.92" x2="100.21" y2="85.92" xlink:href="#linear-gradient"/><linearGradient id="linear-gradient-7" x1="150.47" y1="157.74" x2="162.31" y2="157.74" xlink:href="#linear-gradient"/><linearGradient id="linear-gradient-8" x1="163.58" y1="157.96" x2="178.37" y2="157.96" xlink:href="#linear-gradient"/><linearGradient id="linear-gradient-9" x1="131.64" y1="158.47" x2="148.2" y2="158.47" xlink:href="#linear-gradient"/><linearGradient id="linear-gradient-10" x1="51.04" y1="121.48" x2="191.94" y2="121.48" xlink:href="#linear-gradient"/></defs><rect class="cls-1" x="16.5" y="16.55" width="210" height="210" rx="36.4"/><path class="cls-2" d="M109.11,122.36a14.59,14.59,0,0,0,12.41-6c3-4.14,2.43-9.26,2.43-14.06V99.87l14.48-10.71.22-.19a3.61,3.61,0,0,0,1.12-1.15,3.9,3.9,0,0,0,0-3.79,3.68,3.68,0,0,0-1.11-1.15l-.23-.19L124,72q0-4.16,0-8.3a14,14,0,0,0-12.5-14.1,49.64,49.64,0,0,0-5.72-.1H69a38,38,0,0,0-6.91.31c-6.49,1.22-10.94,7.3-11,13.72s0,12.7,0,19.05v23.69c0,3.44.23,6.81,2.25,9.79a14.47,14.47,0,0,0,12.48,6.32h43.32Zm4.92-64c.18.11.1.07,0,0ZM59,111c.05.14.08.26,0,0Zm.93,1.51Zm1,1Zm6.31,1.32c-.78,0-1.55,0-2.32,0l-.92,0-.32-.06-.65-.17c-.21-.06-.42-.14-.63-.21H62.4a.44.44,0,0,0-.1-.06l-1.13-.66-.08-.05-.42-.38a9.68,9.68,0,0,1-.82-.87l-.07-.09c-.17-.28-.35-.55-.51-.84s-.17-.34-.26-.52l0-.08c-.12-.43-.25-.86-.35-1.29a.78.78,0,0,1,0-.19l0-.51c0-.12,0-.25,0-.37V63.38c0-.18,0-.36,0-.54s0-.22,0-.36l.06-.33a11.55,11.55,0,0,1,.38-1.27h0c.13-.24.25-.48.39-.72s.47-.68.5-.74a8.86,8.86,0,0,1,.73-.77l.37-.34.13-.09c.4-.24.8-.47,1.21-.69,0,0,.73-.26.87-.3s.87-.16.9-.19L65,57c2.6,0,5.2,0,7.81,0h30.44c2.28,0,4.55,0,6.82,0,.21,0,1,.09.94.07.31.06.61.12.92.21l.63.21h0c.44.23.85.48,1.27.73l.08,0c.15.12.29.25.43.38a9,9,0,0,1,.73.78c0,.06.41.58.5.73s.2.39.31.58l.09.14s0,.09,0,.17c.12.43.24.85.35,1.29,0,0,0,.12,0,.19s0,.34,0,.51,0,.5,0,.76c0,1,0,2,0,3,0,2.27,0,4.54,0,6.81s1.76,3.43,3.45,4.67l10.36,7.67-4.89,3.62-5.6,4.14-1.35,1a4.41,4.41,0,0,0-2,3.68c-.06,2.32,0,4.64,0,7,0,1,0,1.91,0,2.86,0,.28,0,.56,0,.84,0,0,0,.22,0,.35s-.06.29-.07.33a10.22,10.22,0,0,1-.36,1.23c-.06.09-.31.64-.4.79s-.48.67-.5.74a8.86,8.86,0,0,1-.73.77l-.27.24a6.11,6.11,0,0,0-.51.37,10.62,10.62,0,0,1-.94.51c-.07,0-.72.26-.86.3l-.8.17-.9,0c-.67,0-1.34,0-2,0H67.3Z"/><path class="cls-3" d="M182.22,121.28a18.66,18.66,0,0,0-5.95-.64H139.66c-4.8,0-10.09-.59-14.28,2.24a14.27,14.27,0,0,0-5.73,7.62,17.81,17.81,0,0,0-.59,5.34v7.29l-14.48,10.71a3.82,3.82,0,0,0,0,6.47L119.06,171v4.25a36.71,36.71,0,0,0,.34,7.41,13.93,13.93,0,0,0,8.75,10,15.61,15.61,0,0,0,5.63.87H178a14,14,0,0,0,10.41-4.66,14.33,14.33,0,0,0,3.52-9.4V134.52A14.11,14.11,0,0,0,182.22,121.28Zm-1.72,7.3Zm-1.46-.41Zm-47.09,0Zm52.21,53.32c-.06.22-.14.44-.22.66l-.06.13c-.25.42-.48.84-.75,1.24-.07.09-.17.22-.23.28s-.37.39-.57.57l-.28.26c0-.06-.52.36-.64.43s-1,.49-.91.48a13.91,13.91,0,0,1-1.4.4l-.1,0c-.32,0-.63,0-.94.05H178c-9.84.13-19.69,0-29.53,0H133l-.79,0h-.18l-.17-.05-.65-.15c-.26-.07-.52-.16-.78-.25l-.46-.23-.56-.33-.41-.29-.37-.32c-.16-.14-.31-.3-.46-.45,0,0-.19-.23-.32-.38l-.28-.4q-.18-.28-.33-.57c-.09-.15-.16-.3-.24-.46-.16-.47-.27-1-.4-1.43,0-.07,0-.12,0-.17v-.18c0-.23,0-.46,0-.69s0-.48,0-.71v-8.62c0-1.81-.26-3.19-1.89-4.41-.49-.38-1-.74-1.49-1.11l-10.43-7.71,11.18-8.28.75-.55a4.36,4.36,0,0,0,1.88-3.57c0-1.76,0-3.53,0-5.3,0-1.6,0-3.2,0-4.8,0-.28,0-.56,0-.85,0,0,.1-.58.14-.75s.18-.61.29-.91c0-.09.17-.37.24-.49.18-.34.39-.65.59-1l.23-.25c.3-.32.6-.61.93-.9a2.83,2.83,0,0,1,.28-.2l.84-.49.35-.17.11,0c.38-.11.74-.23,1.13-.32l.4-.08h.11l.7,0H177c.58,0,1.15,0,1.73,0h.11l.4.08c.33.08.65.17,1,.27l.39.14.08,0,1,.57a2.83,2.83,0,0,1,.28.2c.28.25.56.5.82.78.1.1.27.32.35.4.21.31.41.61.59.94.07.13.2.42.24.51.08.24.17.48.24.73s.15.69.19.85a1.14,1.14,0,0,1,0,.15l0,.7v45.1l0,.71v.12s0,0,0,.07C184.33,180.85,184.26,181.17,184.16,181.49Z"/><path class="cls-4" d="M151.42,89.67h13.29v19.47a3.75,3.75,0,1,0,7.5,0V85.92a3.81,3.81,0,0,0-3.75-3.75h-17a3.75,3.75,0,0,0,0,7.5Z"/><path class="cls-5" d="M92,153.24H78.67V133.77a3.75,3.75,0,0,0-7.5,0V157a3.81,3.81,0,0,0,3.75,3.75H92a3.75,3.75,0,0,0,0-7.5Z"/><path class="cls-6" d="M88.65,77.57a3,3,0,0,0-3,3V83a3.07,3.07,0,0,0-.6-.07H82.21V80.57a3,3,0,0,0-6,0V91.28a3,3,0,0,0,6,0V88.92h2.84a3.05,3.05,0,0,0,.6-.06v2.42a3,3,0,0,0,6,0V80.57A3,3,0,0,0,88.65,77.57Z"/><path class="cls-7" d="M97.21,77.57a3,3,0,0,0-3,3V91.28a3,3,0,0,0,6,0V80.57A3,3,0,0,0,97.21,77.57Z"/><path class="cls-8" d="M159.31,160.09h-2.84v-7.71a3,3,0,0,0-6,0v10.71a2.89,2.89,0,0,0,.13.78,2.63,2.63,0,0,0,.75,1.34,1.64,1.64,0,0,0,.26.2,2.69,2.69,0,0,0,1.86.68h5.84a3,3,0,0,0,2.12-5.12A3.12,3.12,0,0,0,159.31,160.09Z"/><path class="cls-9" d="M174.12,152.57l-.54-1.27a3,3,0,0,0-5.18,0l-3.87,9-.55,1.27a3.3,3.3,0,0,0-.3,2.31,3,3,0,0,0,1.38,1.79,3.06,3.06,0,0,0,2.31.31,2.94,2.94,0,0,0,1.79-1.38l.34-.79h3l.34.79A3,3,0,0,0,174.6,166a3.1,3.1,0,0,0,2.31-.31,3,3,0,0,0,1.38-1.79,3.55,3.55,0,0,0-.3-2.31Z"/><path class="cls-10" d="M142.61,150.66A8.23,8.23,0,0,0,133.7,153a8.91,8.91,0,0,0-2,4.94,8.2,8.2,0,0,0,4.6,7.92,8.73,8.73,0,0,0,5.4.68,8.28,8.28,0,0,0,1-15.92Zm-.53,8.59a.56.56,0,0,0,0,.12c-.11.18-.21.36-.33.54l-.17.19-.19.18-.54.32h0l-.1,0c-.16.05-.32.07-.48.11h-.58c-.16,0-.32-.06-.47-.11l-.12,0-.54-.32-.19-.18-.18-.18c-.11-.18-.22-.36-.32-.54v0a.36.36,0,0,1,0-.11c-.05-.15-.07-.31-.11-.47a5.61,5.61,0,0,1,0-.58c0-.16.06-.32.11-.48a.49.49,0,0,1,0-.11c.1-.19.21-.37.32-.54l.18-.2.18-.17.54-.33h0l.11,0,.47-.1h.58l.48.1.11,0c.19.11.37.21.54.33l.2.17.17.19.33.54v0a.62.62,0,0,0,0,.1c0,.16.07.33.11.49s0,.19,0,.28,0,.18,0,.27S142.13,159.09,142.08,159.25Z"/><path class="cls-11" d="M109.11,122.36a14.59,14.59,0,0,0,12.41-6c3-4.14,2.43-9.26,2.43-14.06V99.87l14.48-10.71.22-.19a3.61,3.61,0,0,0,1.12-1.15,3.9,3.9,0,0,0,0-3.79,3.68,3.68,0,0,0-1.11-1.15l-.23-.19L124,72q0-4.16,0-8.3a14,14,0,0,0-12.5-14.1,49.64,49.64,0,0,0-5.72-.1H69a38,38,0,0,0-6.91.31c-6.49,1.22-10.94,7.3-11,13.72s0,12.7,0,19.05v23.69c0,3.44.23,6.81,2.25,9.79a14.47,14.47,0,0,0,12.48,6.32h43.32Zm4.92-64c.18.11.1.07,0,0ZM59,111c.05.14.08.26,0,0Zm.93,1.51Zm1,1Zm6.31,1.32c-.78,0-1.55,0-2.32,0l-.92,0-.32-.06-.65-.17c-.21-.06-.42-.14-.63-.21H62.4a.44.44,0,0,0-.1-.06l-1.13-.66-.08-.05-.42-.38a9.68,9.68,0,0,1-.82-.87l-.07-.09c-.17-.28-.35-.55-.51-.84s-.17-.34-.26-.52l0-.08c-.12-.43-.25-.86-.35-1.29a.78.78,0,0,1,0-.19l0-.51c0-.12,0-.25,0-.37V63.38c0-.18,0-.36,0-.54s0-.22,0-.36l.06-.33a11.55,11.55,0,0,1,.38-1.27h0c.13-.24.25-.48.39-.72s.47-.68.5-.74a8.86,8.86,0,0,1,.73-.77l.37-.34.13-.09c.4-.24.8-.47,1.21-.69,0,0,.73-.26.87-.3s.87-.16.9-.19L65,57c2.6,0,5.2,0,7.81,0h30.44c2.28,0,4.55,0,6.82,0,.21,0,1,.09.94.07.31.06.61.12.92.21l.63.21h0c.44.23.85.48,1.27.73l.08,0c.15.12.29.25.43.38a9,9,0,0,1,.73.78c0,.06.41.58.5.73s.2.39.31.58l.09.14s0,.09,0,.17c.12.43.24.85.35,1.29,0,0,0,.12,0,.19s0,.34,0,.51,0,.5,0,.76c0,1,0,2,0,3,0,2.27,0,4.54,0,6.81s1.76,3.43,3.45,4.67l10.36,7.67-4.89,3.62-5.6,4.14-1.35,1a4.41,4.41,0,0,0-2,3.68c-.06,2.32,0,4.64,0,7,0,1,0,1.91,0,2.86,0,.28,0,.56,0,.84,0,0,0,.22,0,.35s-.06.29-.07.33a10.22,10.22,0,0,1-.36,1.23c-.06.09-.31.64-.4.79s-.48.67-.5.74a8.86,8.86,0,0,1-.73.77l-.27.24a6.11,6.11,0,0,0-.51.37,10.62,10.62,0,0,1-.94.51c-.07,0-.72.26-.86.3l-.8.17-.9,0c-.67,0-1.34,0-2,0H67.3Z"/><path class="cls-11" d="M182.22,121.28a18.66,18.66,0,0,0-5.95-.64H139.66c-4.8,0-10.09-.59-14.28,2.24a14.27,14.27,0,0,0-5.73,7.62,17.81,17.81,0,0,0-.59,5.34v7.29l-14.48,10.71a3.82,3.82,0,0,0,0,6.47L119.06,171v4.25a36.71,36.71,0,0,0,.34,7.41,13.93,13.93,0,0,0,8.75,10,15.61,15.61,0,0,0,5.63.87H178a14,14,0,0,0,10.41-4.66,14.33,14.33,0,0,0,3.52-9.4V134.52A14.11,14.11,0,0,0,182.22,121.28Zm-1.72,7.3Zm-1.46-.41Zm-47.09,0Zm52.21,53.32c-.06.22-.14.44-.22.66l-.06.13c-.25.42-.48.84-.75,1.24-.07.09-.17.22-.23.28s-.37.39-.57.57l-.28.26c0-.06-.52.36-.64.43s-1,.49-.91.48a13.91,13.91,0,0,1-1.4.4l-.1,0c-.32,0-.63,0-.94.05H178c-9.84.13-19.69,0-29.53,0H133l-.79,0h-.18l-.17-.05-.65-.15c-.26-.07-.52-.16-.78-.25l-.46-.23-.56-.33-.41-.29-.37-.32c-.16-.14-.31-.3-.46-.45,0,0-.19-.23-.32-.38l-.28-.4q-.18-.28-.33-.57c-.09-.15-.16-.3-.24-.46-.16-.47-.27-1-.4-1.43,0-.07,0-.12,0-.17v-.18c0-.23,0-.46,0-.69s0-.48,0-.71v-8.62c0-1.81-.26-3.19-1.89-4.41-.49-.38-1-.74-1.49-1.11l-10.43-7.71,11.18-8.28.75-.55a4.36,4.36,0,0,0,1.88-3.57c0-1.76,0-3.53,0-5.3,0-1.6,0-3.2,0-4.8,0-.28,0-.56,0-.85,0,0,.1-.58.14-.75s.18-.61.29-.91c0-.09.17-.37.24-.49.18-.34.39-.65.59-1l.23-.25c.3-.32.6-.61.93-.9a2.83,2.83,0,0,1,.28-.2l.84-.49.35-.17.11,0c.38-.11.74-.23,1.13-.32l.4-.08h.11l.7,0H177c.58,0,1.15,0,1.73,0h.11l.4.08c.33.08.65.17,1,.27l.39.14.08,0,1,.57a2.83,2.83,0,0,1,.28.2c.28.25.56.5.82.78.1.1.27.32.35.4.21.31.41.61.59.94.07.13.2.42.24.51.08.24.17.48.24.73s.15.69.19.85a1.14,1.14,0,0,1,0,.15l0,.7v45.1l0,.71v.12s0,0,0,.07C184.33,180.85,184.26,181.17,184.16,181.49Z"/><path class="cls-11" d="M151.42,89.67h13.29v19.47a3.75,3.75,0,1,0,7.5,0V85.92a3.81,3.81,0,0,0-3.75-3.75h-17a3.75,3.75,0,0,0,0,7.5Z"/><path class="cls-11" d="M92,153.24H78.67V133.77a3.75,3.75,0,0,0-7.5,0V157a3.81,3.81,0,0,0,3.75,3.75H92a3.75,3.75,0,0,0,0-7.5Z"/><path class="cls-11" d="M88.65,77.57a3,3,0,0,0-3,3V83a3.07,3.07,0,0,0-.6-.07H82.21V80.57a3,3,0,0,0-6,0V91.28a3,3,0,0,0,6,0V88.92h2.84a3.05,3.05,0,0,0,.6-.06v2.42a3,3,0,0,0,6,0V80.57A3,3,0,0,0,88.65,77.57Z"/><path class="cls-11" d="M97.21,77.57a3,3,0,0,0-3,3V91.28a3,3,0,0,0,6,0V80.57A3,3,0,0,0,97.21,77.57Z"/><path class="cls-11" d="M159.31,160.09h-2.84v-7.71a3,3,0,0,0-6,0v10.71a2.89,2.89,0,0,0,.13.78,2.63,2.63,0,0,0,.75,1.34,1.64,1.64,0,0,0,.26.2,2.69,2.69,0,0,0,1.86.68h5.84a3,3,0,0,0,2.12-5.12A3.12,3.12,0,0,0,159.31,160.09Z"/><path class="cls-11" d="M174.12,152.57l-.54-1.27a3,3,0,0,0-5.18,0l-3.87,9-.55,1.27a3.3,3.3,0,0,0-.3,2.31,3,3,0,0,0,1.38,1.79,3.06,3.06,0,0,0,2.31.31,2.94,2.94,0,0,0,1.79-1.38l.34-.79h3l.34.79A3,3,0,0,0,174.6,166a3.1,3.1,0,0,0,2.31-.31,3,3,0,0,0,1.38-1.79,3.55,3.55,0,0,0-.3-2.31Z"/><path class="cls-11" d="M142.61,150.66A8.23,8.23,0,0,0,133.7,153a8.91,8.91,0,0,0-2,4.94,8.2,8.2,0,0,0,4.6,7.92,8.73,8.73,0,0,0,5.4.68,8.28,8.28,0,0,0,1-15.92Zm-.53,8.59a.56.56,0,0,0,0,.12c-.11.18-.21.36-.33.54l-.17.19-.19.18-.54.32h0l-.1,0c-.16.05-.32.07-.48.11h-.58c-.16,0-.32-.06-.47-.11l-.12,0-.54-.32-.19-.18-.18-.18c-.11-.18-.22-.36-.32-.54v0a.36.36,0,0,1,0-.11c-.05-.15-.07-.31-.11-.47a5.61,5.61,0,0,1,0-.58c0-.16.06-.32.11-.48a.49.49,0,0,1,0-.11c.1-.19.21-.37.32-.54l.18-.2.18-.17.54-.33h0l.11,0,.47-.1h.58l.48.1.11,0c.19.11.37.21.54.33l.2.17.17.19.33.54v0a.62.62,0,0,0,0,.1c0,.16.07.33.11.49s0,.19,0,.28,0,.18,0,.27S142.13,159.09,142.08,159.25Z"/></svg>