<?xml version="1.0" encoding="utf-8"?>
<!-- Generator: Adobe Illustrator 26.0.2, SVG Export Plug-In . SVG Version: 6.00 Build 0)  -->
<svg version="1.1" id="Layer_1" xmlns="http://www.w3.org/2000/svg" xmlns:xlink="http://www.w3.org/1999/xlink" x="0px" y="0px"
	 viewBox="0 0 243 243" style="enable-background:new 0 0 243 243;" xml:space="preserve">
<style type="text/css">
	.st0{fill:#FFFFFF;}
	.st1{fill:#208679;}
</style>
<circle class="st0" cx="121.8" cy="121.7" r="120.6"/>
<path class="st1" d="M121.8,15.3C63,15.3,15.3,63,15.3,121.7c0,58.8,47.6,106.4,106.4,106.4s106.4-47.6,106.4-106.4c0,0,0,0,0,0
	C228.1,63,180.5,15.4,121.8,15.3z M121.8,219.6c-54.1,0-97.9-43.8-97.9-97.9c0-54.1,43.8-97.9,97.9-97.9c54.1,0,97.9,43.8,97.9,97.9
	c0,0,0,0,0,0C219.6,175.8,175.8,219.6,121.8,219.6z"/>
<path class="st1" d="M134.7,110.2c1.5-1.5,1.5-3.8,0-5.3c-1.5-1.5-3.8-1.5-5.3,0l0,0l-10.3,10.3l-3.6-3.6l-0.9-0.9
	c-1.5-1.5-3.8-1.5-5.3,0c0,0,0,0,0,0c-0.7,0.7-1.1,1.7-1.1,2.7c0,1,0.4,1.9,1.1,2.7l6.2,6.2l0.4,0.4c0.1,0.2,0.3,0.4,0.5,0.6
	c1.5,1.4,3.8,1.4,5.3,0l11.3-11.3L134.7,110.2z"/>
<path class="st1" d="M186.1,162.9c-0.1-0.8-0.4-1.6-1-2.2l-18.2-18.2l3-1.7c1.1-0.7,1.8-1.9,1.9-3.2v-13.3l6.6-11.5
	c0-0.1,0.1-0.2,0.1-0.2v-0.1c0.1-0.2,0.2-0.4,0.2-0.6v-0.1c0-0.2,0.1-0.3,0.1-0.5c0-0.1,0-0.3,0-0.4v-0.2c0-0.6-0.2-1.1-0.5-1.6
	l-6.6-11.5V85.7c0-0.5,0-1,0-1.5c-0.1-1.6-1.1-3-2.6-3.7l-6.3-3.6l-4.5-2.6l-5.9-10.3c-0.2-0.4-0.5-0.9-0.7-1.3
	c-0.9-1.3-2.5-2-4.1-1.9h-12.4l-11.5-6.6c-1.2-0.7-2.6-0.7-3.8,0L108.4,61H96.6c-0.5,0-1,0-1.4,0c-1.6,0.1-3,1.1-3.7,2.6
	c-1.2,2.1-2.4,4.2-3.6,6.3l-2.6,4.5L75,80.3c-0.4,0.2-0.8,0.5-1.3,0.7c-1.5,1-1.8,2.5-1.8,4.1v12.4L65.3,109c-0.7,1.2-0.7,2.6,0,3.8
	l6.6,11.5v11.8c0,0.5,0,1,0,1.5c0.1,2.2,1.6,3.1,3.2,4l1.3,0.8L60.7,158l-2.7,2.7c-1.1,1.1-1.4,2.7-0.8,4.1c0.6,1.4,1.9,2.3,3.4,2.3
	l19.6,2.1c0.6,5.5,1.2,11.1,1.8,16.7c0.1,1,0.2,2,0.3,2.9c0,1.5,0.9,2.8,2.3,3.4c1.4,0.6,3,0.3,4.1-0.8l25.1-25.1l1.6-1.6l2.5,1.4
	c0.7,0.4,1.4,0.8,2.1,1.2c1.9,1,3.4,0.2,5-0.7l3.1-1.8l22.9,22.9c1.2,1.2,2.3,2.3,3.5,3.5c1.1,1.1,2.7,1.4,4.1,0.8
	c1.4-0.6,2.3-1.9,2.3-3.4c0.7-6.5,1.3-13.1,2-19.6l16.7-1.8l2.9-0.3h0.3c0.9,0,1.7-0.4,2.4-1.1c0.1-0.1,0.3-0.3,0.4-0.5
	c0.5-0.6,0.8-1.4,0.7-2.2C186.1,163.2,186.1,163.1,186.1,162.9z M95.1,160.8h13.3l0.2,0.1l-19.6,19.7c-0.4-4-0.8-7.9-1.2-11.9
	c-0.1-1-0.2-1.9-0.3-2.9c-0.1-2-1.7-3.7-3.8-3.8l-14.8-1.5l13.6-13.6l0.7-0.7l2.2,1.2l6.6,11.5C92.6,160.1,93.8,160.8,95.1,160.8
	L95.1,160.8z M116.3,156.7l-3-1.7c-0.7-0.4-1.3-0.8-2-1.2c-0.8-0.4-1.7-0.6-2.6-0.5c-0.6,0-1.3,0-2,0h-9.4l-4.8-8.4
	c-0.2-0.4-0.4-0.7-0.6-1.1s-0.4-0.7-0.6-1c-0.5-0.7-1-1.2-1.7-1.6h-0.1l-0.1-0.1l-1.1-0.6l-4.6-2.6l-4.3-2.5v-10.5
	c0-0.5,0-1.1,0-1.6c-0.1-1-0.4-2-1-2.8c-1.2-2.1-2.4-4.2-3.6-6.3l-1.9-3.3l5.2-9.1c0.3-0.5,0.6-0.9,0.8-1.4c0.4-0.9,0.6-1.9,0.5-2.9
	V86.4l9.1-5.3c0.5-0.3,1-0.5,1.4-0.8c0.8-0.6,1.4-1.3,1.8-2.2l3.6-6.3c0.7-1.1,1.3-2.2,1.9-3.3h10.5c0.5,0,1.1,0,1.6,0
	c1-0.1,1.9-0.4,2.8-1l6.3-3.6l3.3-1.9l9.1,5.2c0.5,0.3,0.9,0.6,1.4,0.8c0.9,0.4,1.9,0.6,2.9,0.5h11.1l5.3,9.1
	c0.3,0.5,0.5,0.9,0.8,1.4c0.6,0.8,1.3,1.4,2.2,1.9l6.3,3.6l3.4,1.9v10.5c0,0.5,0,1.1,0,1.6c0.1,1,0.4,2,1,2.8l3.6,6.3l1.9,3.3
	l-5.2,9.1c-0.3,0.5-0.6,0.9-0.8,1.4c-0.4,0.9-0.6,1.9-0.5,2.9v11.1l-5.3,3.1l0,0c-1.1,0.7-2.3,1.3-3.4,2c-0.6,0.3-1.1,0.6-1.7,1
	c-0.7,0.4-1.2,1-1.6,1.7c-0.4,0.6-0.8,1.3-1.1,2c-0.3,0.4-0.5,0.9-0.8,1.4l-3.9,6.8h-10.8c-0.4,0-0.9,0-1.3,0
	c-1.3,0.2-2.5,0.7-3.5,1.5l-4,2.3l0,0l-0.6,0.3l-4.3,2.5L116.3,156.7z M134.7,161.1L134.7,161.1l0.5-0.3h13.3c1.3,0,2.6-0.7,3.2-1.9
	l6.6-11.5l1.8-1l14.1,14.1l-11.9,1.2l-2.9,0.3c-2,0.1-3.7,1.7-3.8,3.8l-1.5,14.8L134.7,161.1z"/>
<path class="st1" d="M129.2,146c13.6-2.9,24.1-13.8,26.4-27.5c0.3-1.8,0.4-3.6,0.5-5.5c0-18.6-15.1-33.7-33.6-33.7
	S88.7,94.4,88.7,113c0,18.6,15.1,33.7,33.6,33.7C124.6,146.7,126.9,146.5,129.2,146z M118.8,87.1C118.5,87.1,118.6,87.1,118.8,87.1z
	 M96.4,116.6C96.4,116.8,96.5,117.2,96.4,116.6z M118.9,139h-0.2h-0.2l-1-0.2c-0.8-0.1-1.5-0.3-2.3-0.5s-1.4-0.4-2.1-0.7l-0.9-0.4
	l0,0l-0.4-0.2c-1.3-0.6-2.6-1.3-3.9-2.1c-0.5-0.4-1.1-0.7-1.6-1.1l-0.4-0.3c-0.3-0.2-0.6-0.5-0.9-0.8c-1.1-1-2.1-2-3.1-3.2
	c-0.1-0.1-0.3-0.4-0.4-0.4l-0.4-0.6c-0.4-0.6-0.9-1.3-1.2-1.9s-0.7-1.1-1-1.7c-0.2-0.3-0.3-0.7-0.5-1c-0.1-0.1-0.2-0.5-0.3-0.6
	c-0.5-1.4-1-2.8-1.3-4.2c-0.2-0.7-0.3-1.3-0.4-2c0-0.2,0-0.3-0.1-0.5l0,0c0-0.4-0.1-0.8-0.1-1.2c-0.1-1.5-0.1-3,0-4.5
	c0-0.4,0.1-0.8,0.1-1.2c0-0.1,0-0.1,0-0.2s0-0.1,0-0.2c0.1-0.8,0.3-1.6,0.5-2.3c0.3-1.4,0.8-2.7,1.3-4l0.2-0.5
	c0.2-0.3,0.3-0.7,0.5-1c0.3-0.6,0.7-1.3,1-1.9s0.8-1.2,1.2-1.8l0.5-0.7l0.5-0.6c0.9-1.1,1.9-2.1,3-3l0.7-0.6l0.6-0.4
	c0.5-0.4,1-0.8,1.6-1.1c1.2-0.8,2.5-1.5,3.9-2.1l0.5-0.2c0.2-0.1,0.5-0.2,0.7-0.3c0.7-0.3,1.5-0.5,2.2-0.7c0.7-0.2,1.4-0.4,2.1-0.5
	c0.3-0.1,0.7-0.1,1-0.2l0.5-0.1l0,0c1.6-0.2,3.1-0.2,4.7-0.2c0.7,0,1.4,0.1,2.1,0.2h0.2h0.3l1.2,0.2c1.4,0.3,2.8,0.7,4.2,1.2
	l0.9,0.3l0.5,0.2c0.7,0.3,1.4,0.7,2.1,1c1.2,0.7,2.3,1.4,3.4,2.2c0.1,0.1,0.3,0.2,0.4,0.3c0.3,0.2,0.6,0.5,0.9,0.8
	c0.5,0.5,1,1,1.5,1.5s1,1,1.4,1.6L143,97l0.1,0.1c0.2,0.2,0.3,0.4,0.5,0.7c0.8,1.2,1.6,2.4,2.2,3.7c0.1,0.3,0.3,0.6,0.4,0.9
	c0.1,0.1,0.2,0.5,0.3,0.7c0.2,0.6,0.5,1.2,0.7,1.8c0.5,1.4,0.8,2.9,1.1,4.4c0,0.1,0,0.2,0,0.2c0,0,0,0.1,0,0.2c0,0.3,0.1,0.7,0.1,1
	c0.1,0.8,0.1,1.6,0.1,2.4s0,1.5-0.1,2.3c0,0.3-0.1,0.7-0.1,1c0,0.1,0,0.2,0,0.3s0,0.1,0,0.2c-0.3,1.5-0.6,3-1.1,4.4
	c-0.2,0.6-0.4,1.3-0.7,1.9l0,0c-0.1,0.2-0.1,0.3-0.2,0.4c-0.2,0.3-0.3,0.7-0.5,1c-0.6,1.3-1.4,2.5-2.2,3.6c-0.2,0.3-0.4,0.5-0.6,0.8
	l-0.3,0.4c-0.5,0.6-1,1.1-1.5,1.7s-0.9,0.9-1.4,1.4c-0.3,0.3-0.6,0.5-0.9,0.8l-0.5,0.4c-1.1,0.9-2.2,1.7-3.3,2.4
	c-0.6,0.4-1.3,0.7-1.9,1l-0.6,0.3l-0.3,0.1l-0.6,0.2c-1.4,0.5-2.8,0.9-4.2,1.2c-0.3,0.1-0.7,0.1-1,0.2l-0.4,0h-0.1
	c-0.7,0.1-1.5,0.1-2.2,0.2C122,139.2,120.5,139.2,118.9,139z"/>
</svg>
