<svg id="Layer_1" data-name="Layer 1" xmlns="http://www.w3.org/2000/svg" viewBox="0 0 243 243"><defs><style>.cls-1{fill:#fff;}.cls-2{fill:#208679;}</style></defs><circle class="cls-1" cx="121.8" cy="121.7" r="120.6"/><path class="cls-2" d="M121.8,15.3A106.4,106.4,0,1,0,228.2,121.7,106.42,106.42,0,0,0,121.8,15.3Zm0,204.3a97.9,97.9,0,1,1,97.9-97.9h0A98,98,0,0,1,121.8,219.6Z"/><path class="cls-2" d="M133.7,88.2A35.91,35.91,0,0,0,94.3,98.9,36.52,36.52,0,0,0,86,119.2a35.69,35.69,0,0,0,70.8,8.5,37.85,37.85,0,0,0,.5-5.8A35.88,35.88,0,0,0,133.7,88.2Zm14,22.7a6.89,6.89,0,0,0,.3.8,5,5,0,0,1,.4,1.3,34.28,34.28,0,0,1,1.1,4.6.9.9,0,0,0,.1.5v.1c0,.4.1.8.1,1.2a28.85,28.85,0,0,1,0,4.8c0,.3-.1.7-.1,1v.2c0,.2-.1.3-.1.5a34.28,34.28,0,0,1-1.1,4.6,18,18,0,0,1-.8,2.1c0,.1-.1.4-.2.4l-.6,1.2a25.45,25.45,0,0,1-2.4,3.9l-.5.7c-.1.1-.4.6-.5.7-.5.6-1.1,1.2-1.6,1.8s-1,1-1.5,1.5l-.9.8-.4.3-.4.3-.6.5-.8.6a23.92,23.92,0,0,1-2.1,1.3c-.7.4-1.3.7-1.9,1l-.6.3h-.1l-.2.1-.8.3a38.09,38.09,0,0,1-4.5,1.3l-1.2.2-.6.1c-.8.1-1.6.1-2.4.2a26.8,26.8,0,0,1-4.9-.2h0l-.5-.1-1.2-.2a9.77,9.77,0,0,1-2.3-.6c-.8-.3-1.5-.4-2.2-.7l-.9-.3-.7-.3a43.59,43.59,0,0,1-4.2-2.3l-.8-.6-.5-.4-.2-.2-.1-.1-.5-.4c-.3-.3-.7-.6-1-.9a33.41,33.41,0,0,1-3.2-3.3l-.5-.6c0-.1-.4-.5-.4-.6a23.92,23.92,0,0,1-1.3-2.1,17.38,17.38,0,0,1-1-1.9c-.2-.3-.3-.7-.5-1a2.61,2.61,0,0,1-.3-.8,30.87,30.87,0,0,1-1.4-4.3c-.2-.8-.3-1.6-.5-2.3,0-.1-.1-.4-.1-.6,0-.4-.1-.8-.1-1.2a40.05,40.05,0,0,1,0-4.9c0-.4.1-.8.1-1.2h0c0-.2.1-.3.1-.5a15.54,15.54,0,0,1,.5-2.3,33.76,33.76,0,0,1,1.3-4.2l.3-.7c.2-.3.3-.7.5-1a12.81,12.81,0,0,1,1.1-2,21.41,21.41,0,0,1,1.3-1.9c.1-.1.4-.6.5-.7l.1-.1c.2-.2.3-.4.5-.6a25,25,0,0,1,3.2-3.3l1.5-1.2.6-.4c.4-.2.7-.5,1.1-.7a31.13,31.13,0,0,1,4-2.2l.7-.3.7-.3c.8-.3,1.6-.5,2.4-.8a9.07,9.07,0,0,1,2.1-.5l1.2-.2.5-.1h.2a40.15,40.15,0,0,1,4.9-.2,19.42,19.42,0,0,1,2.4.2h.4a5.85,5.85,0,0,0,1.3.2,23.2,23.2,0,0,1,4.5,1.3l.9.3.7.3a15.05,15.05,0,0,1,2.2,1.1c.7.4,1.2.7,1.8,1.1l.9.7.7.5a23.52,23.52,0,0,1,3.3,3,10.7,10.7,0,0,1,1.4,1.6c.2.2.4.5.6.7l.5.7a32.58,32.58,0,0,1,2.4,4c.2.3.3.7.5,1Z"/><path class="cls-2" d="M190.7,118.1h-8a61,61,0,0,0-40.2-53.8,58.52,58.52,0,0,0-17-3.5v-8a3.8,3.8,0,0,0-7.6,0v8a61.18,61.18,0,0,0-57.2,56.5v.8h-8a3.8,3.8,0,0,0,0,7.6h7.8A61.1,61.1,0,0,0,96,177.5a61.85,61.85,0,0,0,21.9,5.4v7.9a3.8,3.8,0,0,0,7.6,0v-7.9a59.79,59.79,0,0,0,40.2-18.7,60.6,60.6,0,0,0,16.2-32.5c.3-2,.5-4,.7-6h8a3.8,3.8,0,0,0,.1-7.6ZM72.2,142.6Zm103-16.3c-.1.7-.1,1.4-.2,2.1,0,.1-.1.5-.1.6,0,.3-.1.6-.1,1a63.44,63.44,0,0,1-2.1,8.6c-.4,1.3-.9,2.6-1.4,3.9a.1.1,0,0,1-.1.1l-.1.4c-.1.3-.3.6-.4.9-.3.6-.6,1.3-.9,1.9a65.17,65.17,0,0,1-4.3,7.2c-.4.5-.8,1.1-1.2,1.6-.1.1-.2.3-.3.4l-.7.9c-.9,1.1-1.9,2.1-2.9,3.2a38.33,38.33,0,0,1-2.9,2.8c-.5.5-1.1.9-1.6,1.4l-.8.6-.5.4a62.81,62.81,0,0,1-6.9,4.5c-1.2.7-2.5,1.3-3.8,1.9l-.9.4-.3.1h0a14.27,14.27,0,0,1-2.2.8,48.72,48.72,0,0,1-8.3,2.3c-.7.1-1.3.3-2,.4l-1.1.2-.6.1a24.52,24.52,0,0,1-2.7.2V168a3.8,3.8,0,1,0-7.6,0v7.3L115,175l-.4-.1-1-.1a17,17,0,0,1-2.2-.4c-1.4-.3-2.9-.6-4.3-1s-2.8-.8-4.1-1.3c-.6-.2-1.2-.5-1.9-.7l-.2-.1-.2-.1-1.1-.5a67.87,67.87,0,0,1-7.5-4.1,37.12,37.12,0,0,1-3.2-2.3l-.6-.4-.8-.6c-.5-.5-1.1-.9-1.6-1.4a56.67,56.67,0,0,1-5.9-6.1l-.6-.8-.3-.4c-.4-.5-.8-1.1-1.2-1.6-.8-1.2-1.6-2.4-2.3-3.6s-1.4-2.5-2.1-3.8l-.9-1.8c-.1-.3-.3-.6-.4-.9l-.2-.4v-.1a61.81,61.81,0,0,1-2.7-8.3c-.3-1.4-.6-2.8-.8-4.2l-.2-1c0-.2-.1-.4-.1-.6a18,18,0,0,1-.2-2.2v-.6h7.3a3.8,3.8,0,0,0,0-7.6H67.8v-.8c.1-.8.1-1.5.2-2.2a.6.6,0,0,1,.1-.4c.1-.4.1-.8.2-1.2a32.9,32.9,0,0,1,.9-4.3,55,55,0,0,1,2.7-8.1h0c0-.1.1-.2.1-.3.1-.3.3-.6.4-.9.3-.7.7-1.4,1-2.1.6-1.2,1.3-2.4,2-3.6s1.5-2.4,2.3-3.6A7.55,7.55,0,0,1,78.8,89l.3-.4a7,7,0,0,0,.8-1,65.51,65.51,0,0,1,5.8-6l1.5-1.3.8-.6.4-.3.1-.1h.1l3.3-2.4a54.58,54.58,0,0,1,7.5-4.1l.9-.4.2-.1.2-.1c.7-.3,1.3-.5,2-.8,1.4-.5,2.8-.9,4.2-1.3s2.8-.7,4.3-1a14.16,14.16,0,0,0,2-.4l1-.2.6-.1a28.25,28.25,0,0,1,2.9-.2v7.2a3.8,3.8,0,0,0,7.6,0V68l3,.3h.4l1.1.2a17,17,0,0,1,2.2.4,78.36,78.36,0,0,1,8.3,2.3,11.92,11.92,0,0,1,2,.8h0l.3.1,1.1.5c1.3.6,2.6,1.3,3.8,2s2.4,1.4,3.5,2.1l1.8,1.2.8.6.4.3.3.2c.1.1.4.3.5.4.3.2.5.4.8.6.6.5,1.2,1,1.7,1.5,1,.9,2,1.9,2.9,2.8s1.9,2.1,2.8,3.2l.6.8.3.4c.4.6.9,1.1,1.3,1.7a52.65,52.65,0,0,1,4.3,7.2l.9,1.8.5,1.1v.1a.6.6,0,0,1,.1.4c.5,1.3,1,2.6,1.4,3.9a51.08,51.08,0,0,1,2,8.6,2.2,2.2,0,0,1,.1.8c0,.1.1.5.1.6.1.7.1,1.4.2,2.1v.8h-7a3.8,3.8,0,1,0,0,7.6H175A1.83,1.83,0,0,1,175.2,126.3Z"/><circle class="cls-2" cx="121.8" cy="121.7" r="5"/></svg>