<?xml version="1.0" encoding="utf-8"?>
<!-- Generator: Adobe Illustrator 26.0.2, SVG Export Plug-In . SVG Version: 6.00 Build 0)  -->
<svg version="1.1" id="Layer_1" xmlns="http://www.w3.org/2000/svg" xmlns:xlink="http://www.w3.org/1999/xlink" x="0px" y="0px"
	 viewBox="0 0 243 243" style="enable-background:new 0 0 243 243;" xml:space="preserve">
<style type="text/css">
	.st0{fill:#FFFFFF;}
	.st1{fill:#208679;}
</style>
<circle class="st0" cx="121.8" cy="121.7" r="120.6"/>
<path class="st1" d="M121.8,15.3C63,15.3,15.4,63,15.4,121.7S63,228.1,121.8,228.1s106.4-47.6,106.4-106.4
	C228.1,63,180.5,15.4,121.8,15.3z M121.8,219.6c-54.1,0-97.9-43.8-97.9-97.9s43.8-97.9,97.9-97.9s97.9,43.8,97.9,97.9c0,0,0,0,0,0
	C219.6,175.8,175.8,219.6,121.8,219.6z"/>
<path class="st1" d="M133.7,88.2c-14.1-5-29.7-0.7-39.4,10.7c-4.8,5.8-7.7,12.9-8.3,20.3c-0.6,7.4,1.2,14.7,5,21.1
	c10.2,16.9,32.1,22.3,49,12.1c8.9-5.4,15.1-14.4,16.8-24.7c0.3-1.9,0.5-3.9,0.5-5.8C157.3,106.7,147.8,93.4,133.7,88.2z
	 M147.7,110.9c0.1,0.2,0.2,0.7,0.3,0.8c0.2,0.4,0.3,0.8,0.4,1.3c0.5,1.5,0.8,3,1.1,4.6c0,0.2,0,0.3,0.1,0.5v0.1
	c0,0.4,0.1,0.8,0.1,1.2c0.1,0.8,0.1,1.6,0.1,2.4s0,1.6-0.1,2.4c0,0.3-0.1,0.7-0.1,1v0.2c0,0.2-0.1,0.3-0.1,0.5
	c-0.3,1.6-0.6,3.1-1.1,4.6c-0.2,0.7-0.5,1.4-0.8,2.1c0,0.1-0.1,0.4-0.2,0.4c-0.2,0.4-0.4,0.8-0.6,1.2c-0.7,1.4-1.5,2.7-2.4,3.9
	l-0.5,0.7c-0.1,0.1-0.4,0.6-0.5,0.7c-0.5,0.6-1.1,1.2-1.6,1.8s-1,1-1.5,1.5l-0.9,0.8l-0.4,0.3l-0.4,0.3l-0.6,0.5l-0.8,0.6
	c-0.7,0.5-1.4,0.9-2.1,1.3s-1.3,0.7-1.9,1l-0.6,0.3h-0.1l-0.2,0.1l-0.8,0.3c-1.5,0.5-3,1-4.5,1.3l-1.2,0.2l-0.6,0.1
	c-0.8,0.1-1.6,0.1-2.4,0.2c-1.6,0.1-3.3,0-4.9-0.2h0l-0.5-0.1l-1.2-0.2c-0.8-0.1-1.5-0.3-2.3-0.6s-1.5-0.4-2.2-0.7l-0.9-0.3
	l-0.7-0.3c-1.4-0.7-2.8-1.4-4.2-2.3l-0.8-0.6l-0.5-0.4l-0.2-0.2l-0.1-0.1l-0.5-0.4c-0.3-0.3-0.7-0.6-1-0.9c-1.1-1-2.2-2.1-3.2-3.3
	l-0.5-0.6c0-0.1-0.4-0.5-0.4-0.6c-0.5-0.7-0.9-1.4-1.3-2.1s-0.7-1.2-1-1.9c-0.2-0.3-0.3-0.7-0.5-1c-0.1-0.1-0.3-0.7-0.3-0.8
	c-0.6-1.4-1-2.8-1.4-4.3c-0.2-0.8-0.3-1.6-0.5-2.3c0-0.1-0.1-0.4-0.1-0.6c0-0.4-0.1-0.8-0.1-1.2c-0.1-1.6-0.1-3.3,0-4.9
	c0-0.4,0.1-0.8,0.1-1.2V118c0-0.2,0.1-0.3,0.1-0.5c0.1-0.8,0.3-1.6,0.5-2.3c0.3-1.4,0.8-2.8,1.3-4.2l0.3-0.7c0.2-0.3,0.3-0.7,0.5-1
	c0.3-0.7,0.7-1.4,1.1-2s0.8-1.3,1.3-1.9c0.1-0.1,0.4-0.6,0.5-0.7l0.1-0.1c0.2-0.2,0.3-0.4,0.5-0.6c1-1.2,2-2.3,3.2-3.3
	c0.5-0.4,1-0.8,1.5-1.2l0.6-0.4c0.4-0.2,0.7-0.5,1.1-0.7c1.3-0.8,2.6-1.6,4-2.2l0.7-0.3l0.7-0.3c0.8-0.3,1.6-0.5,2.4-0.8
	s1.4-0.4,2.1-0.5l1.2-0.2l0.5-0.1h0.1h0.1c1.6-0.2,3.3-0.2,4.9-0.2c0.8,0,1.6,0.1,2.4,0.2h0.1h0.3c0.4,0.1,0.9,0.2,1.3,0.2
	c1.5,0.3,3.1,0.7,4.5,1.3c0.3,0.1,0.6,0.2,0.9,0.3l0.7,0.3c0.8,0.3,1.5,0.7,2.2,1.1s1.2,0.7,1.8,1.1l0.9,0.7l0.7,0.5
	c1.2,0.9,2.3,1.9,3.3,3c0.5,0.5,1,1,1.4,1.6c0.2,0.2,0.4,0.5,0.6,0.7l0.5,0.7c0.9,1.3,1.7,2.6,2.4,4c0.2,0.3,0.3,0.7,0.5,1
	L147.7,110.9z"/>
<path class="st1" d="M190.7,118.1h-8c-0.7-11.3-4.5-22.2-11-31.5c-7.3-10.2-17.4-18-29.2-22.3c-5.5-2-11.2-3.2-17-3.5v-8
	c0-2.1-1.7-3.8-3.8-3.8s-3.8,1.7-3.8,3.8v8c-30.5,1.9-54.9,26-57.2,56.5c0,0.3,0,0.6,0,0.8h-8c-2.1,0-3.8,1.7-3.8,3.8
	s1.7,3.8,3.8,3.8h7.8c1.4,22.5,15,42.4,35.5,51.8c6.9,3.1,14.4,5,21.9,5.4v7.9c0,2.1,1.7,3.8,3.8,3.8s3.8-1.7,3.8-3.8v-7.9
	c15.3-0.9,29.7-7.5,40.2-18.7c8.6-8.9,14.2-20.2,16.2-32.5c0.3-2,0.5-4,0.7-6h8c2.1,0,3.8-1.7,3.8-3.8S192.7,118.1,190.7,118.1
	L190.7,118.1z M72.2,142.6C72.2,142.7,72.2,142.7,72.2,142.6z M175.2,126.3c-0.1,0.7-0.1,1.4-0.2,2.1c0,0.1-0.1,0.5-0.1,0.6
	c0,0.3-0.1,0.6-0.1,1c-0.5,2.9-1.2,5.8-2.1,8.6c-0.4,1.3-0.9,2.6-1.4,3.9c0,0,0,0.1-0.1,0.1l-0.1,0.4c-0.1,0.3-0.3,0.6-0.4,0.9
	c-0.3,0.6-0.6,1.3-0.9,1.9c-1.3,2.5-2.7,4.9-4.3,7.2c-0.4,0.5-0.8,1.1-1.2,1.6c-0.1,0.1-0.2,0.3-0.3,0.4l-0.7,0.9
	c-0.9,1.1-1.9,2.1-2.9,3.2c-0.9,1-1.9,1.9-2.9,2.8c-0.5,0.5-1.1,0.9-1.6,1.4l-0.8,0.6l-0.5,0.4c-2.2,1.7-4.5,3.1-6.9,4.5
	c-1.2,0.7-2.5,1.3-3.8,1.9l-0.9,0.4l-0.3,0.1l0,0c-0.7,0.3-1.4,0.6-2.2,0.8c-2.7,1-5.5,1.8-8.3,2.3c-0.7,0.1-1.3,0.3-2,0.4l-1.1,0.2
	l-0.6,0.1c-0.9,0.1-1.8,0.2-2.7,0.2V168c0-2.1-1.7-3.8-3.8-3.8s-3.8,1.7-3.8,3.8v7.3c-1.1-0.1-2.1-0.2-3.2-0.3l-0.4-0.1l-1-0.1
	c-0.7-0.1-1.5-0.2-2.2-0.4c-1.4-0.3-2.9-0.6-4.3-1s-2.8-0.8-4.1-1.3c-0.6-0.2-1.2-0.5-1.9-0.7l-0.2-0.1l-0.2-0.1l-1.1-0.5
	c-2.6-1.2-5.1-2.6-7.5-4.1c-1.1-0.7-2.2-1.5-3.2-2.3l-0.6-0.4l-0.8-0.6c-0.5-0.5-1.1-0.9-1.6-1.4c-2.1-1.9-4.1-3.9-5.9-6.1l-0.6-0.8
	l-0.3-0.4c-0.4-0.5-0.8-1.1-1.2-1.6c-0.8-1.2-1.6-2.4-2.3-3.6s-1.4-2.5-2.1-3.8c-0.3-0.6-0.6-1.2-0.9-1.8c-0.1-0.3-0.3-0.6-0.4-0.9
	l-0.2-0.4v-0.1c-1.1-2.7-2-5.5-2.7-8.3c-0.3-1.4-0.6-2.8-0.8-4.2l-0.2-1c0-0.2-0.1-0.4-0.1-0.6c-0.1-0.8-0.2-1.5-0.2-2.2
	c0-0.2,0-0.4,0-0.6h7.3c2.1,0,3.8-1.7,3.8-3.8s-1.7-3.8-3.8-3.8h-7.5c0-0.3,0-0.6,0-0.8c0.1-0.8,0.1-1.5,0.2-2.2
	c0-0.1,0-0.3,0.1-0.4c0.1-0.4,0.1-0.8,0.2-1.2c0.2-1.4,0.5-2.9,0.9-4.3c0.7-2.8,1.6-5.5,2.7-8.1l0,0c0-0.1,0.1-0.2,0.1-0.3
	c0.1-0.3,0.3-0.6,0.4-0.9c0.3-0.7,0.7-1.4,1-2.1c0.6-1.2,1.3-2.4,2-3.6s1.5-2.4,2.3-3.6c0.3-0.5,0.7-1,1.1-1.4l0.3-0.4
	c0.3-0.3,0.6-0.7,0.8-1c1.8-2.1,3.7-4.1,5.8-6l1.5-1.3l0.8-0.6l0.4-0.3l0.1-0.1h0.1c1.1-0.8,2.2-1.6,3.3-2.4
	c2.4-1.6,4.9-2.9,7.5-4.1l0.9-0.4l0.2-0.1l0.2-0.1c0.7-0.3,1.3-0.5,2-0.8c1.4-0.5,2.8-0.9,4.2-1.3s2.8-0.7,4.3-1
	c0.7-0.1,1.3-0.2,2-0.4l1-0.2l0.6-0.1c1-0.1,1.9-0.2,2.9-0.2v7.2c0,2.1,1.7,3.8,3.8,3.8s3.8-1.7,3.8-3.8v-7.4c1,0.1,2,0.2,3,0.3h0.4
	l1.1,0.2c0.7,0.1,1.5,0.2,2.2,0.4c2.8,0.6,5.6,1.4,8.3,2.3c0.7,0.2,1.4,0.5,2,0.8l0,0l0.3,0.1l1.1,0.5c1.3,0.6,2.6,1.3,3.8,2
	s2.4,1.4,3.5,2.1c0.6,0.4,1.2,0.8,1.8,1.2l0.8,0.6l0.4,0.3l0.3,0.2c0.1,0.1,0.4,0.3,0.5,0.4c0.3,0.2,0.5,0.4,0.8,0.6
	c0.6,0.5,1.2,1,1.7,1.5c1,0.9,2,1.9,2.9,2.8c1,1,1.9,2.1,2.8,3.2l0.6,0.8l0.3,0.4c0.4,0.6,0.9,1.1,1.3,1.7c1.6,2.3,3.1,4.7,4.3,7.2
	c0.3,0.6,0.6,1.2,0.9,1.8l0.5,1.1c0,0,0,0.1,0,0.1c0.1,0.1,0.1,0.3,0.1,0.4c0.5,1.3,1,2.6,1.4,3.9c0.9,2.8,1.6,5.7,2,8.6
	c0.1,0.3,0.1,0.5,0.1,0.8c0,0.1,0.1,0.5,0.1,0.6c0.1,0.7,0.1,1.4,0.2,2.1c0,0.3,0,0.6,0,0.8h-7c-2.1,0-3.8,1.7-3.8,3.8
	s1.7,3.8,3.8,3.8h7.2C175.2,125.8,175.2,126.1,175.2,126.3z"/>
<circle class="st1" cx="121.8" cy="121.7" r="5"/>
</svg>
