<?xml version="1.0" encoding="utf-8"?>
<!-- Generator: Adobe Illustrator 26.0.2, SVG Export Plug-In . SVG Version: 6.00 Build 0)  -->
<svg version="1.1" id="Layer_1" xmlns="http://www.w3.org/2000/svg" xmlns:xlink="http://www.w3.org/1999/xlink" x="0px" y="0px"
	 viewBox="0 0 243 243" style="enable-background:new 0 0 243 243;" xml:space="preserve">
<style type="text/css">
	.st0{fill:#208679;}
</style>
<g id="Layer_23">
	<path class="st0" d="M121.5,15C62.7,15,15,62.7,15,121.5c0,58.8,47.7,106.5,106.5,106.6S228,180.4,228,121.6c0,0,0,0,0,0
		C227.9,62.7,180.3,15.1,121.5,15z M121.5,219.5c-54.1,0-98-43.9-98-98s43.9-98,98-98s98,43.9,98,98v0
		C219.4,175.6,175.6,219.5,121.5,219.5z"/>
	<path class="st0" d="M173.5,93.5c-0.1-1.2-0.7-2.4-1.6-3.2l-6.9-5.7c-5.5-4.6-11-9.1-16.5-13.7c-0.9-0.8-2-1.3-3.1-1.4
		c-0.4,0-0.9,0-1.3,0H73.3c-2.1,0-3.7,1.7-3.8,3.8v84.7c0,3.9-0.1,7.8,0,11.7c0,0.1,0,0.1,0,0.2c0,2.1,1.7,3.7,3.8,3.8h84.7
		c3.9,0,7.8,0.1,11.7,0h0.2c2.1,0,3.7-1.7,3.8-3.8V94.6C173.5,94.2,173.6,93.9,173.5,93.5z M97.7,77h20.1v21H94.8V77H97.7z
		 M137.1,166H94.6v-15.3h53.9V166H137.1z M156,166v-19c0-2.1-1.7-3.7-3.8-3.8H90.8c-2.1,0-3.7,1.7-3.8,3.8v19h-1.9
		c-2.7,0-5.4-0.1-8.1-0.1V85.1c0-2.7,0.1-5.4,0.1-8.1h10.2v24.7c0,2.1,1.7,3.7,3.8,3.8h30.4c2.1,0,3.7-1.7,3.8-3.8V77h18.9l20,16.6
		l1.9,1.6V166H156z"/>
	<path class="st0" d="M150.8,128.1h-60c-3.9,0-3.9,6,0,6h60C154.7,134.1,154.7,128.1,150.8,128.1z"/>
	<path class="st0" d="M90.8,120.4h34.1c3.9,0,3.9-6,0-6H90.8C87,114.4,87,120.4,90.8,120.4z"/>
</g>
</svg>
