<?xml version="1.0" encoding="utf-8"?>
<!-- Generator: Adobe Illustrator 26.0.2, SVG Export Plug-In . SVG Version: 6.00 Build 0)  -->
<svg version="1.1" id="Layer_1" xmlns="http://www.w3.org/2000/svg" xmlns:xlink="http://www.w3.org/1999/xlink" x="0px" y="0px"
	 viewBox="0 0 243 243" style="enable-background:new 0 0 243 243;" xml:space="preserve">
<style type="text/css">
	.st0{fill:#208679;}
</style>
<g id="Layer_23">
	<path class="st0" d="M121.5,15C62.7,15,15,62.7,15,121.5c0,58.8,47.7,106.5,106.5,106.6S228,180.4,228,121.6c0,0,0,0,0,0
		C227.9,62.7,180.3,15.1,121.5,15z M121.5,219.5c-54.1,0-98-43.9-98-98s43.9-98,98-98s98,43.9,98,98v0
		C219.4,175.6,175.6,219.5,121.5,219.5z"/>
	<path class="st0" d="M186.8,107.8c-2.1-8.6-8.7-15.5-17.3-17.9c-2.1-0.6-4.3-0.9-6.5-0.9c-2.1,0-3.7,1.7-3.8,3.8
		c0,2.1,1.7,3.7,3.8,3.8c0.5,0,0.9,0,1.4,0l0.9,0.1l0,0c1,0.2,2,0.4,2.9,0.7c0.4,0.1,0.8,0.3,1.3,0.4h0.1c0.2,0.1,0.5,0.2,0.7,0.3
		c0.8,0.4,1.6,0.9,2.4,1.4l0.8,0.6c0.3,0.2,0.6,0.5,0.8,0.7c0.7,0.7,1.4,1.4,2,2.1l0.1,0.2l0.3,0.4c0.2,0.4,0.5,0.7,0.7,1.1
		c0.5,0.8,0.9,1.6,1.3,2.4c0,0.1,0.2,0.7,0.3,0.8c0.1,0.4,0.3,0.8,0.4,1.3s0.2,1,0.3,1.5l0.1,0.7c0,0,0,0,0,0.1c0,0,0,0.1,0,0.1
		c0.1,0.9,0.1,1.8,0.1,2.7v14.2c0,0.5,0,1.1,0,1.6s-0.1,1-0.1,1.6c0,0.1,0,0.1,0,0.2s-0.1,0.3-0.1,0.5c-0.2,1-0.4,2-0.8,2.9
		c-0.1,0.1-0.3,0.7-0.3,0.8c-0.1,0.3-0.3,0.7-0.5,1c-0.4,0.9-1,1.7-1.5,2.5l-0.3,0.4l-0.1,0.2c-0.3,0.3-0.6,0.7-0.9,1
		c-0.6,0.7-1.3,1.3-2,1.9c0,0-0.7,0.5-0.9,0.6c-0.4,0.2-0.7,0.5-1.1,0.7c-0.4,0.2-0.9,0.5-1.3,0.7l-0.6,0.3h-0.1h-0.1
		c-0.9,0.3-1.8,0.6-2.7,0.8c-0.4,0.1-0.9,0.2-1.3,0.3h-0.1c-0.3,0-0.6,0.1-0.9,0.1c-1.9,0.1-3.9,0-5.8,0h-45.2
		c-3.6,0-7.2,0-10.8-0.1l6.7-5.5l2.1-1.8c1.6-1.3,1.3-4,0-5.3c-1.5-1.4-3.8-1.4-5.3,0c-4.9,4-9.7,8-14.6,12l-2.1,1.7
		c-0.5,0.4-0.8,0.9-0.9,1.5c-0.1,0.4-0.2,0.8-0.2,1.1c0,0,0,0.1,0,0.1c0,1,0.4,1.9,1.1,2.6l14.6,12l2.1,1.8c1.5,1.4,3.8,1.4,5.3,0
		c1.3-1.3,1.6-4,0-5.3l-8.9-7.2h42.3c6.2,0,12.5,0.1,18.7,0c9-0.2,17.1-5.3,21.2-13.2c1.8-3.5,2.8-7.5,2.8-11.4c0-2,0-3.9,0-5.9
		C187.5,118.4,188,112.8,186.8,107.8z"/>
	<path class="st0" d="M63,114.9c0-0.4,0-0.9,0-1.3s0-0.9,0-1.4c0-0.1,0.1-0.9,0.1-1c0.1-0.9,0.4-1.8,0.6-2.7
		c0.1-0.4,0.3-0.8,0.4-1.3V107c0.1-0.2,0.1-0.3,0.2-0.5c0.5-0.9,1-1.7,1.6-2.5c0.2-0.3,0.4-0.6,0.6-0.9c0.1-0.1,0.5-0.6,0.6-0.7
		c0.6-0.7,1.3-1.4,2.1-2.1l0.4-0.3c0,0,0.1-0.1,0.1-0.1c0.4-0.3,0.8-0.6,1.2-0.8c0.8-0.5,1.6-0.9,2.5-1.3l0,0l0.8-0.3
		c0.4-0.2,0.8-0.3,1.3-0.4s0.9-0.2,1.3-0.3l0.7-0.1l0.3-0.1l0,0c2.1-0.2,4.2-0.1,6.3-0.1h44.6c3.6,0,7.1,0,10.7,0.1l-6.7,5.5
		c-0.7,0.6-1.4,1.2-2.1,1.8c-1.6,1.3-1.3,4,0,5.3c1.5,1.4,3.8,1.4,5.3,0l14.6-12l2.1-1.7c0.4-0.4,0.8-0.9,0.9-1.5
		c0.1-0.4,0.2-0.8,0.2-1.1v-0.1c0-1-0.4-1.9-1.1-2.6c-4.9-4-9.7-8-14.6-12l-2.1-1.7c-1.5-1.4-3.8-1.4-5.3,0c-1.3,1.3-1.6,4,0,5.3
		l9,7.4H84.8c-2,0-4.1-0.1-6.1,0c-8.8,0.5-16.6,5.7-20.6,13.6c-1.7,3.5-2.5,7.2-2.5,11.1c0,2,0,4,0,6.1c0,5.2-0.5,10.7,0.8,15.8
		c2.2,8.5,8.8,15.2,17.2,17.6c2.1,0.6,4.4,0.9,6.6,0.9c2.1,0,3.7-1.7,3.8-3.8c0-2.1-1.7-3.7-3.8-3.8c-0.5,0-0.9,0-1.4,0l-0.7-0.1
		h-0.2c-0.9-0.1-1.9-0.4-2.8-0.6c-0.5-0.1-1-0.3-1.4-0.5h-0.1L73,145c-0.8-0.4-1.7-0.9-2.4-1.4l-0.7-0.5l-0.3-0.2l-0.3-0.2l-0.5-0.4
		c-0.7-0.7-1.4-1.4-2-2.1l-0.3-0.2l-0.2-0.3c-0.2-0.4-0.5-0.7-0.7-1.1c-0.5-0.8-1-1.7-1.4-2.6c0,0,0,0,0-0.1
		c-0.1-0.2-0.2-0.4-0.2-0.6c-0.2-0.5-0.3-0.9-0.4-1.4s-0.2-0.9-0.3-1.3c0-0.2-0.1-0.4-0.1-0.7c0-0.1,0-0.1,0-0.1v-0.1
		c-0.1-0.9-0.1-1.9-0.1-2.8L63,114.9L63,114.9z M73.4,97.8C74.1,97.5,73.6,97.8,73.4,97.8z"/>
</g>
</svg>
