<?xml version="1.0" encoding="utf-8"?>
<!-- Generator: Adobe Illustrator 26.0.2, SVG Export Plug-In . SVG Version: 6.00 Build 0)  -->
<svg version="1.1" id="Layer_1" xmlns="http://www.w3.org/2000/svg" xmlns:xlink="http://www.w3.org/1999/xlink" x="0px" y="0px"
	 viewBox="0 0 243 243" style="enable-background:new 0 0 243 243;" xml:space="preserve">
<style type="text/css">
	.st0{fill:#208679;}
</style>
<g id="Layer_23">
	<path class="st0" d="M121.5,15C62.7,15,15,62.7,15,121.5c0,58.8,47.7,106.5,106.5,106.6S228,180.4,228,121.6c0,0,0,0,0,0
		C227.9,62.7,180.3,15.1,121.5,15z M121.5,219.5c-54.1,0-98-43.9-98-98s43.9-98,98-98s98,43.9,98,98v0
		C219.4,175.6,175.6,219.5,121.5,219.5z"/>
	<path class="st0" d="M147.4,119.2c-15.3-5.3-32,2.7-37.4,18s2.7,32,18,37.4c4.9,1.7,10.1,2.1,15.2,1.1
		c13.3-2.6,23.5-14.9,23.6-28.7c0-0.1,0-0.2,0-0.2C166.8,134.5,159,123.5,147.4,119.2z M159.9,147c0,9.3-5.8,17.7-14.5,21
		c-9,3.3-19.1,0.5-25.3-6.8c-7.8-9.6-6.4-23.7,3.2-31.6c4-3.3,9.1-5.1,14.3-5c1.5,0,2.9,0.1,4.4,0.4
		C152.4,127.2,159.8,136.4,159.9,147z"/>
	<path class="st0" d="M104.7,124.1c0.6-1.2,1.3-2.4,2-3.5c0.4-0.6,0.8-1.1,1.2-1.7c0.2-0.3-0.2,0.2,0.2-0.2l0.7-0.8
		c0.9-1,1.8-2,2.8-2.9c0.5-0.4,1-0.9,1.5-1.3c0.3-0.2-0.3,0.2,0.2-0.2l0.9-0.6c1.1-0.8,2.2-1.5,3.4-2.1c0.5-0.3,1.1-0.6,1.6-0.8
		c0.8-0.4,1.1-0.5,0.4-0.2l1-0.4c1.2-0.4,2.4-0.8,3.7-1.1c0.7-0.2,1.3-0.3,2-0.4c0.4-0.1,0.7-0.1,1.1-0.2c-0.7,0.1,0.3,0,0.5,0
		c2-0.2,3.8-1.6,3.7-3.8c-0.1-1.9-1.7-4-3.8-3.8c-12.7,1.2-23.9,8.8-29.7,20.2c-1,1.8-0.4,4.1,1.3,5.1
		C101.3,126.6,103.6,126,104.7,124.1L104.7,124.1z"/>
	<path class="st0" d="M84.9,124.8c0.6-2.3,1.4-4.6,2.3-6.8c-0.2,0.6,0,0,0-0.1c0.1-0.3,0.3-0.6,0.4-1s0.4-0.8,0.6-1.3
		c0.5-1.1,1.1-2.2,1.7-3.2s1.1-1.9,1.8-2.8c0.3-0.5,0.7-0.9,1-1.4l0.4-0.6c0.5-0.7-0.2,0.3,0.2-0.3c1.4-1.8,3-3.4,4.6-5
		c0.7-0.7,1.5-1.4,2.3-2.1l1.3-1.1l0.5-0.4c-0.6,0.5,0.3-0.2,0.5-0.3c1.8-1.3,3.7-2.5,5.6-3.5c1-0.6,2-1.1,3-1.6
		c0.4-0.2,0.8-0.4,1.2-0.6c1-0.5-0.7,0.3,0.4-0.2l1-0.4c2.1-0.8,4.2-1.5,6.4-2c1.2-0.3,2.5-0.6,3.7-0.8l0.9-0.1
		c1.1-0.2-0.8,0.1,0.4,0c0.6-0.1,1.3-0.1,1.9-0.2c2.7-0.2,5.3-0.2,8,0c2.1,0,3.7-1.7,3.8-3.8c0-2.1-1.7-3.7-3.8-3.8
		c-26.5-1.8-50.5,15.4-57.2,41.1c-0.6,2,0.6,4.1,2.6,4.6C82.4,128,84.4,126.9,84.9,124.8L84.9,124.8L84.9,124.8z"/>
	<path class="st0" d="M65.8,125.6c0.6-3.6,1.6-7.1,2.7-10.6c0.3-0.8,0.6-1.6,0.9-2.4c0.2-0.4,0.3-0.8,0.4-1.1l0.3-0.6
		c-0.3,0.6,0-0.1,0.1-0.2c0.7-1.6,1.5-3.2,2.3-4.8c1.6-3.1,3.5-6.1,5.6-8.9l0.4-0.6c0.2-0.3,0.5-0.6,0.7-0.9c0.6-0.7,1.1-1.4,1.7-2
		c1.1-1.3,2.3-2.6,3.5-3.8s2.5-2.4,3.8-3.5c0.6-0.5,1.3-1.1,1.9-1.6l0.5-0.4c-0.1,0.1-0.5,0.4,0,0l1.1-0.8c2.8-2,5.7-3.9,8.8-5.4
		c1.5-0.8,3.1-1.5,4.7-2.2c0.1,0,0.7-0.3,0.3-0.1s0.1,0,0.2-0.1L107,75c0.8-0.3,1.7-0.6,2.5-0.9c3.3-1.1,6.7-2,10.1-2.6
		c1-0.2,2-0.3,3-0.5c-0.7,0.1,0.4,0,0.7-0.1l1.5-0.2c2-0.2,4-0.3,6-0.3s3.9,0.1,5.9,0.2c1.1,0.1,2.1,0.2,3.2,0.3h0.2l0.6,0.1
		l1.8,0.3c1.9,0.3,4.1-0.5,4.6-2.6c0.4-1.8-0.6-4.2-2.6-4.6c-15.3-2.7-31-0.6-45,6c-21.5,10.2-36.8,30.1-41,53.5
		c-0.5,2,0.7,4,2.6,4.6C62.9,128.7,65.3,127.7,65.8,125.6L65.8,125.6z"/>
</g>
</svg>
