<svg id="Layer_1" data-name="Layer 1" xmlns="http://www.w3.org/2000/svg" viewBox="0 0 683 56"><defs><style>.cls-1{fill:#208679;}.cls-2{isolation:isolate;}.cls-3{fill:#fff;}</style></defs><path class="cls-1" d="M670.19,0H639.81A12.82,12.82,0,0,0,627,12.81V27H369.5V12.81A12.82,12.82,0,0,0,356.69,0H326.31A12.82,12.82,0,0,0,313.5,12.81V27H56V12.81A12.82,12.82,0,0,0,43.19,0H12.81A12.82,12.82,0,0,0,0,12.81V43.19A12.82,12.82,0,0,0,12.81,56H43.19A12.82,12.82,0,0,0,56,43.19V29H313.5V43.19A12.82,12.82,0,0,0,326.31,56h30.38A12.82,12.82,0,0,0,369.5,43.19V29H627V43.19A12.82,12.82,0,0,0,639.81,56h30.38A12.82,12.82,0,0,0,683,43.19V12.81A12.82,12.82,0,0,0,670.19,0Z"/><g class="cls-2"><path class="cls-3" d="M27.07,23.27l-3.44,2.15-1.74-3.06L28,18.3h3.47V38.52H27.07Z"/></g><g class="cls-2"><path class="cls-3" d="M333.79,35l7.45-5.77c2.42-1.91,3.18-3.24,3.18-4.65a2.79,2.79,0,0,0-3.06-2.68c-2,0-3.47,1-4.95,2.68l-2.76-2.68A9.58,9.58,0,0,1,341.48,18c4.3,0,7.41,2.64,7.41,6.44,0,2.71-1.17,4.8-4.7,7.36l-3.68,2.85h8.56v3.92H333.79Z"/></g><g class="cls-2"><path class="cls-3" d="M646.78,35.49l2.56-2.89A7.25,7.25,0,0,0,654.69,35c2.24,0,3.54-1,3.54-2.48s-1.21-2.35-4-2.32H652V26.48l2.32,0c2.21,0,3.53-.82,3.53-2.27s-1.38-2.41-3.38-2.41a6.47,6.47,0,0,0-4.77,2.36l-2.5-2.65A9.5,9.5,0,0,1,654.84,18c4.56,0,7.42,2.32,7.42,5.53a4.86,4.86,0,0,1-3.8,4.65c2.21.5,4.24,2.06,4.24,4.74,0,3.5-3.09,6-7.8,6A10.47,10.47,0,0,1,646.78,35.49Z"/></g></svg>