<svg id="Layer_1" data-name="Layer 1" xmlns="http://www.w3.org/2000/svg" viewBox="0 0 75 540"><defs><style>.cls-1{fill:#208679;}.cls-2{isolation:isolate;}.cls-3{fill:#fff;}</style></defs><path class="cls-1" d="M52.7,56A12.76,12.76,0,0,0,65.5,43.2V12.8A12.76,12.76,0,0,0,52.7,0H22.3A12.76,12.76,0,0,0,9.5,12.8V43.2A12.76,12.76,0,0,0,22.3,56H36.5V240.5H22.3A12.76,12.76,0,0,0,9.5,253.3v30.4a12.76,12.76,0,0,0,12.8,12.8H36.5V484H22.3A12.76,12.76,0,0,0,9.5,496.8v30.4A12.76,12.76,0,0,0,22.3,540H52.7a12.76,12.76,0,0,0,12.8-12.8V496.8A12.76,12.76,0,0,0,52.7,484H38.5V296.5H52.7a12.76,12.76,0,0,0,12.8-12.8V253.3a12.76,12.76,0,0,0-12.8-12.8H38.5V56Z"/><g class="cls-2"><path class="cls-3" d="M36.6,23.3l-3.4,2.1-1.7-3.1,6.1-4.1h3.5V38.4H36.7V23.3Z"/></g><g class="cls-2"><path class="cls-3" d="M29.8,275.5l7.4-5.8c2.4-1.9,3.2-3.2,3.2-4.7,0-1.7-1.4-2.7-3.1-2.7-2,0-3.5,1-4.9,2.7l-2.8-2.7a9.66,9.66,0,0,1,7.8-3.9c4.3,0,7.4,2.6,7.4,6.4,0,2.7-1.2,4.8-4.7,7.4l-3.7,2.9H45V279H29.8Z"/></g><g class="cls-2"><path class="cls-3" d="M29.3,519.5l2.6-2.9a7.34,7.34,0,0,0,5.4,2.4c2.2,0,3.5-1,3.5-2.5s-1.2-2.4-3.9-2.3H34.6v-3.7h2.3c2.2,0,3.5-.8,3.5-2.3s-1.4-2.4-3.4-2.4a6.42,6.42,0,0,0-4.8,2.4l-2.5-2.6a9.65,9.65,0,0,1,7.7-3.6c4.6,0,7.4,2.3,7.4,5.5a5,5,0,0,1-3.8,4.7c2.2.5,4.2,2.1,4.2,4.7,0,3.5-3.1,6-7.8,6A10.24,10.24,0,0,1,29.3,519.5Z"/></g></svg>